<svg xmlns="http://www.w3.org/2000/svg" xmlns:xlink="http://www.w3.org/1999/xlink" width="386" height="820" fill="none" xmlns:v="https://vecta.io/nano"><path fill="url(#B)" d="M0 0h976v820H0z"/><mask id="A" maskUnits="userSpaceOnUse" x="0" y="0" width="976" height="820" mask-type="alpha"><path fill="url(#B)" d="M0 0h976v820H0z"/></mask><g mask="url(#A)"><g style="mix-blend-mode:luminosity" opacity=".4"><path d="M0 304.761v70.225l60.976 35.116 60.977-35.116v-70.225l-60.977-35.115L0 304.761z" fill="url(#C)"/><path d="M0 234.533v70.225l60.976 35.116 60.977-35.116v-70.225l-60.977-35.116L0 234.533z" fill="url(#D)"/><path d="M182.929 199.435v70.225l-60.976 35.116-60.977-35.116v-70.225l60.977-35.115 60.976 35.115z" fill="url(#E)"/><path d="M121.953 374.986v-70.225l60.976-35.115 60.976 35.115v70.225l-60.976 35.116-60.976-35.116z" fill="url(#F)"/><use xlink:href="#v" fill="url(#G)"/><path d="M182.929 410.117v-70.225l-60.976-35.116-60.977 35.116v70.225l60.977 35.116 60.976-35.116z" fill="url(#H)"/></g><g style="mix-blend-mode:luminosity" opacity=".4"><path d="M244 304.761v70.225l60.976 35.116 60.977-35.116v-70.225l-60.977-35.115L244 304.761z" fill="url(#I)"/><path d="M244 234.533v70.225l60.976 35.116 60.977-35.116v-70.225l-60.977-35.116L244 234.533z" fill="url(#J)"/><path d="M426.929 199.435v70.225l-60.977 35.116-60.976-35.116v-70.225l60.976-35.115 60.977 35.115z" fill="url(#K)"/><path d="M365.953 374.986v-70.225l60.976-35.115 60.976 35.115v70.225l-60.976 35.116-60.976-35.116z" fill="url(#L)"/><use xlink:href="#v" x="244" fill="url(#G)"/><path d="M426.929 410.117v-70.225l-60.977-35.116-60.976 35.116v70.225l60.976 35.116 60.977-35.116z" fill="url(#M)"/></g><g style="mix-blend-mode:luminosity" opacity=".4"><path d="M0 515.206v70.225l60.976 35.116 60.977-35.116v-70.225L60.976 480.09 0 515.206z" fill="url(#N)"/><path d="M0 444.978v70.225l60.976 35.115 60.977-35.115v-70.225l-60.977-35.116L0 444.978z" fill="url(#O)"/><path d="M182.929 409.88v70.225l-60.976 35.116-60.977-35.116V409.88l60.977-35.116 60.976 35.116z" fill="url(#P)"/><path d="M121.953 585.431v-70.225l60.976-35.116 60.976 35.116v70.225l-60.976 35.116-60.976-35.116z" fill="url(#Q)"/><path d="M243.905 444.978v70.225l-60.976 35.115-60.976-35.115v-70.225l60.976-35.116 60.976 35.116z" fill="url(#R)"/><path d="M182.929 620.562v-70.225l-60.976-35.116-60.977 35.116v70.225l60.977 35.115 60.976-35.115z" fill="url(#S)"/></g><g style="mix-blend-mode:luminosity" opacity=".4"><path d="M244 515.206v70.225l60.976 35.116 60.977-35.116v-70.225l-60.977-35.116L244 515.206z" fill="url(#T)"/><path d="M244 444.978v70.225l60.976 35.115 60.977-35.115v-70.225l-60.977-35.116L244 444.978z" fill="url(#U)"/><path d="M426.929 409.88v70.225l-60.977 35.116-60.976-35.116V409.88l60.976-35.116 60.977 35.116z" fill="url(#V)"/><path d="M365.953 585.431v-70.225l60.976-35.116 60.976 35.116v70.225l-60.976 35.116-60.976-35.116z" fill="url(#W)"/><path d="M487.905 444.978v70.225l-60.976 35.115-60.976-35.115v-70.225l60.976-35.116 60.976 35.116z" fill="url(#X)"/><path d="M426.929 620.562v-70.225l-60.977-35.116-60.976 35.116v70.225l60.976 35.116 60.977-35.116z" fill="url(#Y)"/></g><g style="mix-blend-mode:luminosity" opacity=".4"><path d="M0 725.651v70.224l60.976 35.116 60.977-35.116v-70.224l-60.977-35.116L0 725.651z" fill="url(#Z)"/><path d="M0 655.422v70.225l60.976 35.116 60.977-35.116v-70.225l-60.977-35.116L0 655.422z" fill="url(#a)"/><path d="M182.929 620.325v70.225l-60.976 35.115-60.977-35.115v-70.225l60.977-35.116 60.976 35.116z" fill="url(#b)"/><path d="M121.953 795.875v-70.224l60.976-35.116 60.976 35.116v70.224l-60.976 35.116-60.976-35.116z" fill="url(#c)"/><use xlink:href="#v" y="420.889" fill="url(#G)"/><path d="M182.929 831.006v-70.225l-60.976-35.116-60.977 35.116v70.225l60.977 35.116 60.976-35.116z" fill="url(#d)"/></g><g style="mix-blend-mode:luminosity" opacity=".4"><path d="M244 725.651v70.225l60.976 35.115 60.977-35.115v-70.225l-60.977-35.116L244 725.651z" fill="url(#e)"/><path d="M244 655.422v70.225l60.976 35.116 60.977-35.116v-70.225l-60.977-35.116L244 655.422z" fill="url(#f)"/><path d="M426.929 620.325v70.225l-60.977 35.116-60.976-35.116v-70.225l60.976-35.116 60.977 35.116z" fill="url(#g)"/><path d="M365.953 795.875v-70.224l60.976-35.116 60.976 35.116v70.224l-60.976 35.116-60.976-35.116z" fill="url(#h)"/><use xlink:href="#v" x="244" y="420.889" fill="url(#G)"/><path d="M426.929 831.006v-70.225l-60.977-35.115-60.976 35.115v70.225l60.976 35.116 60.977-35.116z" fill="url(#i)"/></g><g style="mix-blend-mode:luminosity" opacity=".4"><path d="M0 94.317v70.225l60.976 35.116 60.977-35.116V94.317L60.976 59.201 0 94.317z" fill="url(#j)"/><path d="M0 24.089v70.225l60.976 35.116 60.977-35.115V24.089L60.976-11.027 0 24.089z" fill="url(#k)"/><path d="M182.929-11.009v70.225l-60.976 35.116-60.977-35.116v-70.225l60.977-35.116 60.976 35.116z" fill="url(#l)"/><path d="M121.953 164.542V94.317l60.976-35.116 60.976 35.116v70.225l-60.976 35.116-60.976-35.116z" fill="url(#m)"/><path d="M243.905 24.089v70.225l-60.976 35.116-60.976-35.115V24.089l60.976-35.116 60.976 35.116z" fill="url(#n)"/><path d="M182.929 199.672v-70.224l-60.976-35.116-60.977 35.116v70.224l60.977 35.116 60.976-35.116z" fill="url(#o)"/></g><g style="mix-blend-mode:luminosity" opacity=".4"><path d="M244 94.317v70.225l60.976 35.116 60.977-35.116V94.317l-60.977-35.116L244 94.317z" fill="url(#p)"/><path d="M244 24.089v70.225l60.976 35.116 60.977-35.115V24.089l-60.977-35.116L244 24.089z" fill="url(#q)"/><path d="M426.929-11.009v70.225l-60.977 35.116-60.976-35.116v-70.225l60.976-35.116 60.977 35.116z" fill="url(#r)"/><path d="M365.953 164.542V94.317l60.976-35.116 60.976 35.116v70.225l-60.976 35.116-60.976-35.116z" fill="url(#s)"/><path d="M487.905 24.089v70.225l-60.976 35.116-60.976-35.115V24.089l60.976-35.116 60.976 35.116z" fill="url(#t)"/><path d="M426.929 199.672v-70.224l-60.977-35.116-60.976 35.116v70.224l60.976 35.116 60.977-35.116z" fill="url(#u)"/></g></g><defs><linearGradient id="B" x1="305" y1="0" x2="305" y2="820" xlink:href="#w"><stop stop-color="#ff008e"/><stop offset="1" stop-color="#ffcd1e"/></linearGradient><linearGradient id="C" x1="60.976" y1="406.873" x2=".232" y2="303.246" xlink:href="#w"><stop stop-color="#8257e5"/><stop offset="1" stop-color="#ff008e" stop-opacity="0"/></linearGradient><linearGradient id="D" x1="60.976" y1="336.644" x2=".232" y2="233.017" xlink:href="#w"><stop stop-color="#8257e5"/><stop offset="1" stop-color="#ff008e" stop-opacity="0"/></linearGradient><linearGradient id="E" x1="60.976" y1="195.489" x2="182.763" y2="268.955" xlink:href="#w"><stop stop-color="#ff008e" stop-opacity="0"/><stop offset="1" stop-color="#ffcd1e"/></linearGradient><linearGradient id="F" x1="243.905" y1="378.933" x2="122.119" y2="305.467" xlink:href="#w"><stop stop-color="#ff008e" stop-opacity="0"/><stop offset="1" stop-color="#ffcd1e"/></linearGradient><linearGradient id="G" x1="182.929" y1="336.644" x2="243.673" y2="233.017" xlink:href="#w"><stop stop-color="#8257e5"/><stop offset="1" stop-color="#ff008e" stop-opacity="0"/></linearGradient><linearGradient id="H" x1="121.953" y1="308.006" x2="182.697" y2="411.633" xlink:href="#w"><stop stop-color="#8257e5"/><stop offset="1" stop-color="#ff008e" stop-opacity="0"/></linearGradient><linearGradient id="I" x1="304.976" y1="406.872" x2="244.232" y2="303.246" xlink:href="#w"><stop stop-color="#8257e5"/><stop offset="1" stop-color="#ff008e" stop-opacity="0"/></linearGradient><linearGradient id="J" x1="304.976" y1="336.644" x2="244.232" y2="233.017" xlink:href="#w"><stop stop-color="#8257e5"/><stop offset="1" stop-color="#ff008e" stop-opacity="0"/></linearGradient><linearGradient id="K" x1="304.976" y1="195.489" x2="426.762" y2="268.955" xlink:href="#w"><stop stop-color="#ff008e" stop-opacity="0"/><stop offset="1" stop-color="#ffcd1e"/></linearGradient><linearGradient id="L" x1="487.905" y1="378.933" x2="366.119" y2="305.467" xlink:href="#w"><stop stop-color="#ff008e" stop-opacity="0"/><stop offset="1" stop-color="#ffcd1e"/></linearGradient><linearGradient id="M" x1="365.952" y1="308.006" x2="426.697" y2="411.633" xlink:href="#w"><stop stop-color="#8257e5"/><stop offset="1" stop-color="#ff008e" stop-opacity="0"/></linearGradient><linearGradient id="N" x1="60.976" y1="617.317" x2=".232" y2="513.69" xlink:href="#w"><stop stop-color="#8257e5"/><stop offset="1" stop-color="#ff008e" stop-opacity="0"/></linearGradient><linearGradient id="O" x1="60.976" y1="547.089" x2=".232" y2="443.462" xlink:href="#w"><stop stop-color="#8257e5"/><stop offset="1" stop-color="#ff008e" stop-opacity="0"/></linearGradient><linearGradient id="P" x1="60.976" y1="405.933" x2="182.763" y2="479.4" xlink:href="#w"><stop stop-color="#ff008e" stop-opacity="0"/><stop offset="1" stop-color="#ffcd1e"/></linearGradient><linearGradient id="Q" x1="243.905" y1="589.378" x2="122.119" y2="515.911" xlink:href="#w"><stop stop-color="#ff008e" stop-opacity="0"/><stop offset="1" stop-color="#ffcd1e"/></linearGradient><linearGradient id="R" x1="182.929" y1="547.089" x2="243.673" y2="443.462" xlink:href="#w"><stop stop-color="#8257e5"/><stop offset="1" stop-color="#ff008e" stop-opacity="0"/></linearGradient><linearGradient id="S" x1="121.953" y1="518.451" x2="182.697" y2="622.077" xlink:href="#w"><stop stop-color="#8257e5"/><stop offset="1" stop-color="#ff008e" stop-opacity="0"/></linearGradient><linearGradient id="T" x1="304.976" y1="617.317" x2="244.232" y2="513.69" xlink:href="#w"><stop stop-color="#8257e5"/><stop offset="1" stop-color="#ff008e" stop-opacity="0"/></linearGradient><linearGradient id="U" x1="304.976" y1="547.089" x2="244.232" y2="443.462" xlink:href="#w"><stop stop-color="#8257e5"/><stop offset="1" stop-color="#ff008e" stop-opacity="0"/></linearGradient><linearGradient id="V" x1="304.976" y1="405.933" x2="426.762" y2="479.4" xlink:href="#w"><stop stop-color="#ff008e" stop-opacity="0"/><stop offset="1" stop-color="#ffcd1e"/></linearGradient><linearGradient id="W" x1="487.905" y1="589.378" x2="366.119" y2="515.911" xlink:href="#w"><stop stop-color="#ff008e" stop-opacity="0"/><stop offset="1" stop-color="#ffcd1e"/></linearGradient><linearGradient id="X" x1="426.929" y1="547.089" x2="487.673" y2="443.462" xlink:href="#w"><stop stop-color="#8257e5"/><stop offset="1" stop-color="#ff008e" stop-opacity="0"/></linearGradient><linearGradient id="Y" x1="365.952" y1="518.451" x2="426.697" y2="622.078" xlink:href="#w"><stop stop-color="#8257e5"/><stop offset="1" stop-color="#ff008e" stop-opacity="0"/></linearGradient><linearGradient id="Z" x1="60.976" y1="827.762" x2=".232" y2="724.135" xlink:href="#w"><stop stop-color="#8257e5"/><stop offset="1" stop-color="#ff008e" stop-opacity="0"/></linearGradient><linearGradient id="a" x1="60.976" y1="757.533" x2=".232" y2="653.906" xlink:href="#w"><stop stop-color="#8257e5"/><stop offset="1" stop-color="#ff008e" stop-opacity="0"/></linearGradient><linearGradient id="b" x1="60.976" y1="616.378" x2="182.763" y2="689.844" xlink:href="#w"><stop stop-color="#ff008e" stop-opacity="0"/><stop offset="1" stop-color="#ffcd1e"/></linearGradient><linearGradient id="c" x1="243.905" y1="799.822" x2="122.119" y2="726.356" xlink:href="#w"><stop stop-color="#ff008e" stop-opacity="0"/><stop offset="1" stop-color="#ffcd1e"/></linearGradient><linearGradient id="d" x1="121.953" y1="728.895" x2="182.697" y2="832.522" xlink:href="#w"><stop stop-color="#8257e5"/><stop offset="1" stop-color="#ff008e" stop-opacity="0"/></linearGradient><linearGradient id="e" x1="304.976" y1="827.762" x2="244.232" y2="724.135" xlink:href="#w"><stop stop-color="#8257e5"/><stop offset="1" stop-color="#ff008e" stop-opacity="0"/></linearGradient><linearGradient id="f" x1="304.976" y1="757.533" x2="244.232" y2="653.906" xlink:href="#w"><stop stop-color="#8257e5"/><stop offset="1" stop-color="#ff008e" stop-opacity="0"/></linearGradient><linearGradient id="g" x1="304.976" y1="616.378" x2="426.762" y2="689.844" xlink:href="#w"><stop stop-color="#ff008e" stop-opacity="0"/><stop offset="1" stop-color="#ffcd1e"/></linearGradient><linearGradient id="h" x1="487.905" y1="799.822" x2="366.119" y2="726.356" xlink:href="#w"><stop stop-color="#ff008e" stop-opacity="0"/><stop offset="1" stop-color="#ffcd1e"/></linearGradient><linearGradient id="i" x1="365.952" y1="728.895" x2="426.697" y2="832.522" xlink:href="#w"><stop stop-color="#8257e5"/><stop offset="1" stop-color="#ff008e" stop-opacity="0"/></linearGradient><linearGradient id="j" x1="60.976" y1="196.428" x2=".232" y2="92.801" xlink:href="#w"><stop stop-color="#8257e5"/><stop offset="1" stop-color="#ff008e" stop-opacity="0"/></linearGradient><linearGradient id="k" x1="60.976" y1="126.2" x2=".232" y2="22.573" xlink:href="#w"><stop stop-color="#8257e5"/><stop offset="1" stop-color="#ff008e" stop-opacity="0"/></linearGradient><linearGradient id="l" x1="60.976" y1="-14.956" x2="182.763" y2="58.511" xlink:href="#w"><stop stop-color="#ff008e" stop-opacity="0"/><stop offset="1" stop-color="#ffcd1e"/></linearGradient><linearGradient id="m" x1="243.905" y1="168.488" x2="122.119" y2="95.022" xlink:href="#w"><stop stop-color="#ff008e" stop-opacity="0"/><stop offset="1" stop-color="#ffcd1e"/></linearGradient><linearGradient id="n" x1="182.929" y1="126.2" x2="243.673" y2="22.573" xlink:href="#w"><stop stop-color="#8257e5"/><stop offset="1" stop-color="#ff008e" stop-opacity="0"/></linearGradient><linearGradient id="o" x1="121.953" y1="97.561" x2="182.697" y2="201.188" xlink:href="#w"><stop stop-color="#8257e5"/><stop offset="1" stop-color="#ff008e" stop-opacity="0"/></linearGradient><linearGradient id="p" x1="304.976" y1="196.428" x2="244.232" y2="92.801" xlink:href="#w"><stop stop-color="#8257e5"/><stop offset="1" stop-color="#ff008e" stop-opacity="0"/></linearGradient><linearGradient id="q" x1="304.976" y1="126.2" x2="244.232" y2="22.573" xlink:href="#w"><stop stop-color="#8257e5"/><stop offset="1" stop-color="#ff008e" stop-opacity="0"/></linearGradient><linearGradient id="r" x1="304.976" y1="-14.956" x2="426.762" y2="58.511" xlink:href="#w"><stop stop-color="#ff008e" stop-opacity="0"/><stop offset="1" stop-color="#ffcd1e"/></linearGradient><linearGradient id="s" x1="487.905" y1="168.488" x2="366.119" y2="95.022" xlink:href="#w"><stop stop-color="#ff008e" stop-opacity="0"/><stop offset="1" stop-color="#ffcd1e"/></linearGradient><linearGradient id="t" x1="426.929" y1="126.2" x2="487.673" y2="22.573" xlink:href="#w"><stop stop-color="#8257e5"/><stop offset="1" stop-color="#ff008e" stop-opacity="0"/></linearGradient><linearGradient id="u" x1="365.952" y1="97.561" x2="426.697" y2="201.188" xlink:href="#w"><stop stop-color="#8257e5"/><stop offset="1" stop-color="#ff008e" stop-opacity="0"/></linearGradient><path id="v" d="M243.905 234.533v70.225l-60.976 35.116-60.976-35.116v-70.225l60.976-35.116 60.976 35.116z"/><linearGradient id="w" gradientUnits="userSpaceOnUse"/></defs></svg>