<svg width="405" height="495" viewBox="0 0 405 495" fill="none" xmlns="http://www.w3.org/2000/svg">
<path d="M100.207 242.337C98.3097 241.222 96.4122 243.08 97.1715 244.938L106.658 269.467C107.417 271.326 107.417 273.183 107.037 275.042L98.6893 307.004C98.3097 309.234 99.069 311.464 100.587 312.579L124.493 330.79C126.77 332.276 129.806 332.276 131.703 330.418L156.749 308.862C158.266 307.747 160.164 307.004 161.682 306.632L190.142 303.659C192.039 303.287 192.798 300.686 190.901 299.571L100.207 242.337Z" fill="url(#paint0_linear_61723:3241)"/>
<path d="M399.992 9.6153L334.323 0.101228C332.38 -0.279335 330.437 0.48175 329.66 1.24288L301.683 37.0157C299.74 39.2992 299.351 42.3437 300.129 45.0076C300.906 47.6715 298.575 49.955 295.854 49.5744L272.929 44.627C269.431 43.8659 265.546 45.0077 263.214 48.0522L172.288 162.221C170.734 164.504 167.626 165.266 164.906 164.124L130.323 148.901C127.214 147.379 123.717 147.76 120.997 149.663L103.511 161.46C100.792 163.363 96.9055 163.744 93.797 162.221L85.2481 158.035C79.8084 155.371 73.2026 158.415 71.6483 164.124L65.4312 191.144C63.8769 197.613 66.5967 204.083 72.4258 207.508L85.6368 215.5L127.991 240.997L148.586 253.556C154.414 256.981 161.797 256.22 166.848 252.034L201.431 222.35C204.152 220.067 208.426 219.305 211.534 221.208L222.025 226.536C225.523 228.439 229.797 227.678 232.517 225.014L250.003 209.03C252.723 206.366 256.997 205.986 260.106 207.508L286.14 219.305C290.026 221.208 294.689 220.067 297.408 216.641L309.455 201.419L400.768 86.8697C405.043 81.5416 402.323 73.5496 395.329 72.0274L375.123 67.4606C370.849 66.6998 368.906 61.3718 372.015 58.3273L403.489 19.8904C406.597 15.3237 404.655 10.3764 399.992 9.6153Z" fill="url(#paint1_linear_61723:3241)"/>
<path d="M91.6087 325.158C90.053 324.015 87.7192 323.634 85.7745 324.397L65.1622 334.3C63.9949 334.681 63.2174 335.823 62.4393 336.966L18.4913 443.239C18.4913 443.62 18.4913 443.62 18.4913 444.001C18.8803 444.381 19.2691 444.762 20.047 444.762L30.159 440.953C30.5479 440.953 30.9367 440.953 31.3257 440.953C31.7146 441.334 32.1035 442.096 31.7146 442.477L0.211992 493.137C-0.565851 494.28 0.989871 495.423 1.76772 494.28L115.721 382.294C116.889 381.151 117.277 380.008 117.666 378.485L120 349.536C120 347.631 119.222 346.108 118.055 344.965L91.6087 325.158Z" fill="url(#paint2_linear_61723:3241)"/>
<defs>
<linearGradient id="paint0_linear_61723:3241" x1="-8.28654e-06" y1="11.7358" x2="484.666" y2="112.834" gradientUnits="userSpaceOnUse">
<stop stop-color="#FF008E"/>
<stop offset="1" stop-color="#FFCD1E"/>
</linearGradient>
<linearGradient id="paint1_linear_61723:3241" x1="-8.28654e-06" y1="11.7358" x2="484.666" y2="112.834" gradientUnits="userSpaceOnUse">
<stop stop-color="#FF008E"/>
<stop offset="1" stop-color="#FFCD1E"/>
</linearGradient>
<linearGradient id="paint2_linear_61723:3241" x1="-8.28654e-06" y1="11.7358" x2="484.666" y2="112.834" gradientUnits="userSpaceOnUse">
<stop stop-color="#FF008E"/>
<stop offset="1" stop-color="#FFCD1E"/>
</linearGradient>
</defs>
</svg>
