<svg width="280" height="24" viewBox="0 0 280 24" fill="none" xmlns="http://www.w3.org/2000/svg">
<path fill-rule="evenodd" clip-rule="evenodd" d="M47.623 12.006C47.625 14.369 46.913 16.68 45.577 18.646C44.241 20.612 42.341 22.145 40.117 23.051C37.8892 23.9572 35.4457 24.1949 33.085 23.735C30.723 23.275 28.554 22.138 26.851 20.467C25.148 18.796 23.988 16.668 23.518 14.35C23.3839 13.6895 23.3069 13.0187 23.288 12.345C23.2 15.254 21.985 18.026 19.882 20.09C17.698 22.234 14.736 23.439 11.647 23.439H0V0.572017H11.646C14.735 0.572017 17.697 1.77702 19.881 3.92102C21.986 5.98702 23.202 8.76302 23.287 11.676C23.3296 10.2212 23.6419 8.78687 24.208 7.44602C25.129 5.26202 26.689 3.39602 28.69 2.08302C30.691 0.770017 33.045 0.0670166 35.453 0.0670166C38.677 0.0720166 41.769 1.33102 44.049 3.56902C46.329 5.80702 47.615 8.84002 47.623 12.006ZM78.145 0.572017L74.836 12.529L71.536 0.572017H65.46L62.112 12.567L58.803 0.572017H49.428L57.697 23.438H65.461L68.508 14.168L71.536 23.438H79.3L87.52 0.572017H78.145ZM112.074 0.572017V23.438H103.242V15.254H97.74V23.438H88.908V0.572017H97.74V8.75602H103.252V0.572017H112.074ZM115.383 0.572017V23.438H124.205V0.572017H115.383ZM143.518 16.893V23.438H127.514V0.572017H136.346V16.931L143.518 16.893ZM154.543 9.26102V7.07902L161.715 7.11702V0.572017H145.721V23.438H161.715V16.893H154.543V14.711H160.065V9.26102H154.543Z" fill="url(#paint0_linear_61698:3216)"/>
<path d="M189.646 0.715L186.502 0.248C186.405 0.248 186.308 0.248 186.308 0.334L184.968 2.02C184.9 2.13149 184.869 2.26188 184.881 2.392C184.881 2.487 184.784 2.678 184.687 2.583L183.639 2.307C183.445 2.307 183.26 2.307 183.163 2.488L178.874 7.919C178.776 8.014 178.679 8.014 178.495 8.014L176.874 7.261C176.804 7.21434 176.721 7.18946 176.637 7.18946C176.552 7.18946 176.469 7.21434 176.399 7.261L175.535 7.823C175.465 7.87083 175.382 7.89628 175.297 7.896C175.212 7.89567 175.129 7.87027 175.059 7.823L174.681 7.632C174.618 7.605 174.55 7.59 174.482 7.59C174.413 7.58973 174.345 7.60334 174.282 7.63C174.219 7.65654 174.163 7.69586 174.116 7.74545C174.069 7.79503 174.034 7.8538 174.011 7.918L173.73 9.223C173.693 9.36146 173.701 9.5079 173.751 9.642C173.801 9.776 173.892 9.893 174.011 9.975L174.778 10.442L176.777 11.662L177.748 12.224C177.883 12.2991 178.038 12.3302 178.191 12.313C178.344 12.296 178.488 12.231 178.602 12.128L180.223 10.727C180.369 10.6407 180.54 10.6072 180.708 10.632L181.183 10.908C181.368 11.003 181.562 11.003 181.659 10.813L182.513 10.07C182.573 10.0075 182.65 9.96485 182.735 9.948C182.82 9.931 182.909 9.94 182.989 9.975L184.231 10.537C184.425 10.632 184.609 10.537 184.803 10.442L185.376 9.699L189.666 4.268C189.85 3.982 189.763 3.611 189.374 3.611L188.404 3.43C188.21 3.43 188.122 3.144 188.21 2.954L189.743 1.182C189.937 0.991 189.831 0.715 189.646 0.715V0.715ZM175.38 11.662C175.283 11.567 175.186 11.662 175.186 11.757L175.661 12.967V13.253L175.283 14.844C175.276 14.894 175.282 14.945 175.299 14.993C175.316 15.041 175.344 15.0845 175.38 15.12L176.515 15.968C176.571 16.01 176.639 16.032 176.709 16.032C176.779 16.032 176.848 16.009 176.903 15.968L178.136 14.939C178.174 14.9026 178.22 14.8751 178.271 14.8585C178.321 14.8419 178.374 14.8366 178.427 14.843L179.757 14.652C179.854 14.652 179.854 14.557 179.757 14.461L175.38 11.66V11.662ZM174.962 15.682C174.946 15.66 174.925 15.643 174.901 15.631C174.876 15.6191 174.849 15.6129 174.822 15.613C174.794 15.613 174.767 15.619 174.743 15.631C174.719 15.6431 174.698 15.6605 174.681 15.682L173.711 16.149C173.685 16.149 173.66 16.159 173.642 16.177C173.624 16.195 173.613 16.219 173.613 16.244L171.517 21.294H171.614L172.09 21.113V21.208L170.566 23.637C170.566 23.732 170.566 23.732 170.653 23.732L175.991 18.397C176.088 18.397 176.088 18.302 176.088 18.206L176.185 16.805C176.185 16.71 176.185 16.614 176.088 16.614L174.962 15.68V15.682ZM216.597 16.893V23.438H195.091C195.091 23.438 205.32 12.405 206.669 9.814C207.736 7.775 206.601 6.546 205.562 6.546C204.523 6.546 203.359 7.127 203.359 9.814L195.159 9.271C195.159 4.164 198.808 0.01 205.562 0.01C212.074 0.01 216.044 3.383 216.044 8.185C216.044 11.177 213.423 14.588 210.531 16.903L216.597 16.894V16.893ZM240.86 12.005C240.86 18.617 236.405 24 229.825 24C223.245 24 218.8 18.618 218.8 12.005C218.8 5.392 223.245 0.02 229.825 0.02C236.405 0.02 240.86 5.336 240.86 12.006V12.005ZM264.569 16.893V23.438H243.063C243.063 23.438 253.292 12.405 254.641 9.814C255.708 7.775 254.573 6.546 253.534 6.546C252.495 6.546 251.331 7.127 251.331 9.814L243.131 9.271C243.131 4.164 246.78 0.01 253.534 0.01C260.047 0.01 264.016 3.383 264.016 8.185C264.016 11.177 261.396 14.588 258.503 16.903L264.569 16.894V16.893ZM280 0V23.438H271.178V8.194L267.296 8.67V2.096L280 0Z" fill="#09090A"/>
<defs>
<linearGradient id="paint0_linear_61698:3216" x1="1.30678e-06" y1="0.634016" x2="50.816" y2="88.269" gradientUnits="userSpaceOnUse">
<stop stop-color="#FF008E"/>
<stop offset="1" stop-color="#FFCD1E"/>
</linearGradient>
</defs>
</svg>
