<svg width="500" height="500" viewBox="0 0 500 500" fill="none" xmlns="http://www.w3.org/2000/svg">
<path d="M500 382.4H0V382.65H500V382.4Z" fill="#E0E0E0"/>
<path d="M393.18 390H376.32V390.25H393.18V390Z" fill="#E0E0E0"/>
<path d="M448.56 389.88H404V390.13H448.56V389.88Z" fill="#E0E0E0"/>
<path d="M320.73 391.56H265.26V391.81H320.73V391.56Z" fill="#E0E0E0"/>
<path d="M259.5 391.56H238.78V391.81H259.5V391.56Z" fill="#E0E0E0"/>
<path d="M151.56 389.63H142.46V389.88H151.56V389.63Z" fill="#E0E0E0"/>
<path d="M172.15 389.63H157.11V389.88H172.15V389.63Z" fill="#E0E0E0"/>
<path d="M133.45 394.14H66.8899V394.39H133.45V394.14Z" fill="#E0E0E0"/>
<path d="M237 337.8H43.91C42.3973 337.797 40.9475 337.195 39.8788 336.124C38.8102 335.054 38.21 333.603 38.21 332.09V60.66C38.2231 59.156 38.8292 57.718 39.8964 56.6582C40.9637 55.5985 42.4059 55.0026 43.91 55H237C238.514 55 239.967 55.6016 241.038 56.6724C242.108 57.7433 242.71 59.1956 242.71 60.71V332.09C242.71 333.604 242.108 335.057 241.038 336.128C239.967 337.198 238.514 337.8 237 337.8V337.8ZM43.91 55.2C42.4636 55.2026 41.0774 55.7791 40.0556 56.8027C39.0338 57.8264 38.46 59.2136 38.46 60.66V332.09C38.46 333.536 39.0338 334.924 40.0556 335.947C41.0774 336.971 42.4636 337.547 43.91 337.55H237C238.447 337.547 239.834 336.971 240.858 335.948C241.881 334.924 242.457 333.537 242.46 332.09V60.66C242.457 59.2127 241.881 57.8255 240.858 56.8021C239.834 55.7787 238.447 55.2026 237 55.2H43.91Z" fill="#E0E0E0"/>
<path d="M453.31 337.8H260.21C258.696 337.797 257.246 337.195 256.175 336.125C255.105 335.054 254.503 333.604 254.5 332.09V60.66C254.516 59.1551 255.124 57.7171 256.193 56.6576C257.262 55.5981 258.705 55.0025 260.21 55H453.31C454.812 55.0052 456.252 55.6022 457.317 56.6617C458.382 57.7212 458.987 59.1578 459 60.66V332.09C459 333.601 458.401 335.05 457.335 336.121C456.268 337.191 454.821 337.795 453.31 337.8V337.8ZM260.21 55.2C258.763 55.2026 257.375 55.7787 256.352 56.8021C255.329 57.8255 254.753 59.2127 254.75 60.66V332.09C254.753 333.537 255.329 334.924 256.352 335.948C257.375 336.971 258.763 337.547 260.21 337.55H453.31C454.757 337.547 456.145 336.971 457.168 335.948C458.191 334.924 458.767 333.537 458.77 332.09V60.66C458.767 59.2127 458.191 57.8255 457.168 56.8021C456.145 55.7787 454.757 55.2026 453.31 55.2H260.21Z" fill="#E0E0E0"/>
<path d="M317.79 260.54H270.43V382.4H317.79V260.54Z" fill="#E0E0E0"/>
<path d="M308.79 382.4H317.79V356.81H299.36L308.79 382.4Z" fill="#F0F0F0"/>
<path d="M140.79 260.54H93.4299V382.4H140.79V260.54Z" fill="#E0E0E0"/>
<path d="M317.78 260.54H132.94V366.7H317.78V260.54Z" fill="#F0F0F0"/>
<path d="M228.38 268.25V334.71H310.81V268.25H228.38Z" fill="#E0E0E0"/>
<path d="M139.92 268.26V334.72H222.35V268.26H139.92Z" fill="#E0E0E0"/>
<path d="M310.81 356.81V351.92H228.38V356.81H310.81Z" fill="#E0E0E0"/>
<path d="M222.35 356.81V351.92H139.92V356.81H222.35Z" fill="#E0E0E0"/>
<path d="M310.8 347.36V342.47H228.37V347.36H310.8Z" fill="#E0E0E0"/>
<path d="M222.34 347.37V342.48H139.91V347.37H222.34Z" fill="#E0E0E0"/>
<path d="M189.29 275.41H173C169.495 275.41 166.027 274.697 162.807 273.313C159.586 271.929 156.682 269.903 154.27 267.36H208C205.591 269.902 202.69 271.926 199.473 273.31C196.257 274.694 192.792 275.409 189.29 275.41V275.41Z" fill="#F0F0F0"/>
<path d="M278.58 275.41H262.28C258.775 275.411 255.306 274.698 252.086 273.314C248.865 271.93 245.961 269.904 243.55 267.36H297.31C294.899 269.904 291.994 271.93 288.774 273.314C285.554 274.698 282.085 275.411 278.58 275.41V275.41Z" fill="#F0F0F0"/>
<path d="M141.94 382.4H132.94V356.81H151.37L141.94 382.4Z" fill="#F0F0F0"/>
<path d="M316.77 73.99H68.3501V215.89H316.77V73.99Z" fill="#E0E0E0"/>
<path d="M330.51 69.61H60C59.6632 69.61 59.3402 69.7438 59.102 69.982C58.8638 70.2201 58.73 70.5432 58.73 70.88V70.88C58.7287 71.0476 58.7606 71.2138 58.8238 71.3691C58.887 71.5243 58.9804 71.6655 59.0984 71.7845C59.2165 71.9035 59.357 71.9979 59.5117 72.0624C59.6664 72.1268 59.8324 72.16 60 72.16H330.51C330.678 72.16 330.844 72.1268 330.998 72.0624C331.153 71.9979 331.294 71.9035 331.412 71.7845C331.53 71.6655 331.623 71.5243 331.686 71.3691C331.749 71.2138 331.781 71.0476 331.78 70.88V70.88C331.78 70.5432 331.646 70.2201 331.408 69.982C331.17 69.7438 330.847 69.61 330.51 69.61V69.61Z" fill="#E0E0E0"/>
<path d="M322.21 73.99H70.8899V215.89H322.21V73.99Z" fill="#E6E6E6"/>
<path d="M316.77 215.89H68.3501V226H316.77V215.89Z" fill="#E0E0E0"/>
<path d="M331.27 215.89H79.95V226H331.27V215.89Z" fill="#E6E6E6"/>
<path d="M314.58 208.27V81.61L78.5001 81.61V208.27H314.58Z" fill="#F5F5F5"/>
<path d="M195.34 208.27L240.05 81.61H261.15L216.44 208.27H195.34Z" fill="#FAFAFA"/>
<path d="M220.98 208.27L265.69 81.61H273.91L229.21 208.27H220.98Z" fill="#FAFAFA"/>
<path d="M314.58 208.27V81.61H313.61V208.27H314.58Z" fill="#E0E0E0"/>
<path d="M78.59 67.33H65.48V189.55H78.59V67.33Z" fill="#EBEBEB"/>
<path d="M83.7 67.33H73.49V189.55H83.7V67.33Z" fill="#E0E0E0"/>
<path d="M91.7001 67.33H78.5901V189.55H91.7001V67.33Z" fill="#EBEBEB"/>
<path d="M96.8101 67.33H86.6001V189.55H96.8101V67.33Z" fill="#E0E0E0"/>
<path d="M104.81 67.33H91.7V189.55H104.81V67.33Z" fill="#EBEBEB"/>
<path d="M309.7 67.33H302.15V189.55H309.7V67.33Z" fill="#EBEBEB"/>
<path d="M312.66 67.33H306.77V189.55H312.66V67.33Z" fill="#E0E0E0"/>
<path d="M317.26 67.33H309.71V189.55H317.26V67.33Z" fill="#EBEBEB"/>
<path d="M320.21 67.33H314.32V189.55H320.21V67.33Z" fill="#E0E0E0"/>
<path d="M324.81 67.33H317.26V189.55H324.81V67.33Z" fill="#EBEBEB"/>
<path d="M393.53 120.35H376.77V166.08H393.53V120.35Z" fill="#E6E6E6"/>
<path d="M370.4 173.71L366.52 184.28H370.4L394.13 173.71H370.4Z" fill="#F0F0F0"/>
<path d="M366.52 173.71V184.28L390.26 173.71H366.52Z" fill="#E0E0E0"/>
<path d="M410.99 173.71L407.11 184.28H410.99L434.72 173.71H410.99Z" fill="#F0F0F0"/>
<path d="M407.11 173.71V184.28L430.85 173.71H407.11Z" fill="#E0E0E0"/>
<path d="M349.11 174.2H374.92V166.15H349.11V174.2Z" fill="#E0E0E0"/>
<path d="M448.56 166.15H374.91V174.2H448.56V166.15Z" fill="#F0F0F0"/>
<path d="M421.45 166.08H380.66L375.61 110.67H416.4L421.45 166.08Z" fill="#E0E0E0"/>
<path d="M423.56 166.08H382.77L377.73 110.67H418.52L423.56 166.08Z" fill="#F0F0F0"/>
<path d="M388.35 159.95L384.42 116.8H412.94L416.87 159.95H388.35Z" fill="#FAFAFA"/>
<path d="M157.41 242.75C157.41 242.75 139.82 212.44 164.22 188.31C164.22 188.31 170.59 192.46 170.49 198.04C170.39 203.62 163.67 205.04 165.12 209.68C166.57 214.32 172.91 218.91 168.74 222.76C164.57 226.61 169.41 230.03 169.13 234.76C168.85 239.49 157.41 242.75 157.41 242.75Z" fill="#E0E0E0"/>
<path d="M158.74 245.52C158.74 245.52 165.87 211.21 135.11 196C135.11 196 130.38 201.95 132.23 207.21C134.08 212.47 140.9 211.7 141 216.57C141.1 221.44 136.52 227.78 141.68 230.12C146.84 232.46 143.34 237.24 145.1 241.62C146.86 246 158.74 245.52 158.74 245.52Z" fill="#E0E0E0"/>
<path d="M131.8 237.92C131.8 237.92 132.38 260.54 154.8 260.54C177.22 260.54 177.8 237.92 177.8 237.92H131.8Z" fill="#F0F0F0"/>
<path d="M396.35 382.4H398.64L405.16 350.24L406.31 344.61L413.42 309.61H440.71L455.5 382.4H457.79L442.72 308.22C442.667 307.968 442.529 307.741 442.328 307.579C442.128 307.417 441.878 307.329 441.62 307.33H412.51C412.253 307.327 412.003 307.415 411.804 307.578C411.605 307.74 411.469 307.968 411.42 308.22L405.17 339L404 344.63L396.35 382.4Z" fill="#EBEBEB"/>
<path d="M352.54 382.4H354.83L369.62 309.57H396.91L404 344.63L405.14 350.24L411.67 382.4H414L406.33 344.61L405.17 339L398.92 308.22C398.867 307.968 398.729 307.742 398.528 307.579C398.328 307.417 398.078 307.329 397.82 307.33H368.71C368.452 307.329 368.202 307.417 368.002 307.579C367.801 307.742 367.663 307.968 367.61 308.22L352.54 382.4Z" fill="#EBEBEB"/>
<path d="M419.81 308.45H369.67C365.068 308.448 360.651 306.643 357.364 303.422C354.078 300.201 352.184 295.821 352.09 291.22L350.22 215C350.195 213.304 350.507 211.621 351.137 210.046C351.768 208.472 352.705 207.039 353.894 205.83C355.083 204.62 356.5 203.659 358.063 203.002C359.626 202.344 361.304 202.004 363 202H394.43C397.577 201.999 400.614 203.157 402.962 205.252C405.309 207.347 406.804 210.233 407.16 213.36L419.81 308.45Z" fill="#E6E6E6"/>
<path d="M392.46 298.84H441.53C443.352 298.84 445.099 299.564 446.388 300.852C447.676 302.141 448.4 303.888 448.4 305.71V305.95C448.4 306.613 448.137 307.249 447.668 307.718C447.199 308.187 446.563 308.45 445.9 308.45H392.46V298.84Z" fill="#E6E6E6"/>
<path d="M250 427.56C357.083 427.56 443.89 422.492 443.89 416.24C443.89 409.988 357.083 404.92 250 404.92C142.918 404.92 56.1101 409.988 56.1101 416.24C56.1101 422.492 142.918 427.56 250 427.56Z" fill="#F5F5F5"/>
<path d="M186.55 128.28C186.554 126.417 186.403 124.558 186.1 122.72C184.76 114.597 180.599 107.207 174.35 101.848C168.1 96.4897 160.162 93.5053 151.93 93.4199H151.63C146.107 93.4233 140.665 94.7398 135.751 97.261C130.837 99.7822 126.594 103.436 123.37 107.92C122.84 108.65 122.37 109.4 121.89 110.15C121.851 110.199 121.817 110.253 121.79 110.31C118.507 115.739 116.778 121.965 116.79 128.31V128.38C116.811 135.754 119.168 142.931 123.523 148.882C127.877 154.833 134.006 159.25 141.029 161.5C148.051 163.749 155.606 163.716 162.607 161.403C169.609 159.091 175.699 154.619 180 148.63C180.52 147.9 181 147.16 181.47 146.4C181.509 146.35 181.543 146.297 181.57 146.24C184.849 140.825 186.572 134.61 186.55 128.28V128.28ZM118.28 127.49C118.396 121.78 119.991 116.198 122.91 111.29H133.82C132.153 116.53 131.28 121.991 131.23 127.49H118.28ZM135.35 111.29H150.91V127.49H132.73C132.763 121.987 133.647 116.523 135.35 111.29V111.29ZM152.41 109.79V94.8699C154.573 95.066 156.644 95.8358 158.41 97.0999C162.12 99.6399 165.23 104.1 167.41 109.79H152.41ZM167.95 111.29C169.187 115.036 169.992 118.911 170.35 122.84C170.5 124.4 170.57 125.95 170.59 127.49H152.41V111.29H167.95ZM148.71 95.2899C149.428 95.0859 150.165 94.9586 150.91 94.9099V109.82H135.91C138.71 102.28 143.25 96.7999 148.71 95.2599V95.2899ZM150.91 129.02V145.22H135.38C134.143 141.465 133.344 137.579 133 133.64C132.86 132.08 132.78 130.53 132.76 128.99L150.91 129.02ZM150.91 146.72V161.64C148.748 161.442 146.677 160.673 144.91 159.41C141.21 156.87 138.1 152.41 135.91 146.72H150.91ZM154.61 161.25C153.892 161.455 153.155 161.582 152.41 161.63V146.69H167.41C164.61 154.2 160.07 159.69 154.61 161.22V161.25ZM152.41 145.25V129H170.59C170.562 134.503 169.678 139.968 167.97 145.2L152.41 145.25ZM172.09 129H185.09C184.969 134.709 183.374 140.289 180.46 145.2H169.5C171.167 139.959 172.04 134.499 172.09 129V129ZM185.09 127.5H172.09C172.09 125.92 171.99 124.32 171.84 122.71C171.499 118.834 170.731 115.007 169.55 111.3H180.44C182.545 114.873 183.965 118.807 184.63 122.9C184.868 124.419 185.009 125.953 185.05 127.49L185.09 127.5ZM171.22 101.17C174.489 103.524 177.307 106.448 179.54 109.8H169C166.76 103.61 163.39 98.7099 159.26 95.8699L158.94 95.6599C163.35 96.6474 167.514 98.5184 171.18 101.16L171.22 101.17ZM144.35 95.6799C140.14 98.4499 136.68 103.49 134.35 109.8H123.85L124.58 108.73C129.329 102.101 136.352 97.4516 144.31 95.6699L144.35 95.6799ZM118.35 129H131.3C131.3 130.58 131.4 132.18 131.55 133.79C131.896 137.665 132.664 141.491 133.84 145.2H122.89C120.781 141.629 119.36 137.694 118.7 133.6C118.451 132.078 118.311 130.541 118.28 129H118.35ZM123.89 146.7H134.35C136.59 152.89 139.96 157.79 144.09 160.63L144.42 160.84C136.018 158.932 128.669 153.87 123.89 146.7V146.7ZM159 160.81C163.2 158.05 166.66 153 169 146.69H179.48C179.24 147.05 179 147.41 178.75 147.76C173.997 154.392 166.965 159.039 159 160.81Z" fill="url(#paint0_linear_61720:3245)"/>
<path opacity="0.8" d="M186.55 128.28C186.554 126.417 186.403 124.558 186.1 122.72C184.76 114.597 180.599 107.207 174.35 101.848C168.1 96.4897 160.162 93.5053 151.93 93.4199H151.63C146.107 93.4233 140.665 94.7398 135.751 97.261C130.837 99.7822 126.594 103.436 123.37 107.92C122.84 108.65 122.37 109.4 121.89 110.15C121.851 110.199 121.817 110.253 121.79 110.31C118.507 115.739 116.778 121.965 116.79 128.31V128.38C116.811 135.754 119.168 142.931 123.523 148.882C127.877 154.833 134.006 159.25 141.029 161.5C148.051 163.749 155.606 163.716 162.607 161.403C169.609 159.091 175.699 154.619 180 148.63C180.52 147.9 181 147.16 181.47 146.4C181.509 146.35 181.543 146.297 181.57 146.24C184.849 140.825 186.572 134.61 186.55 128.28V128.28ZM118.28 127.49C118.396 121.78 119.991 116.198 122.91 111.29H133.82C132.153 116.53 131.28 121.991 131.23 127.49H118.28ZM135.35 111.29H150.91V127.49H132.73C132.763 121.987 133.647 116.523 135.35 111.29V111.29ZM152.41 109.79V94.8699C154.573 95.066 156.644 95.8358 158.41 97.0999C162.12 99.6399 165.23 104.1 167.41 109.79H152.41ZM167.95 111.29C169.187 115.036 169.992 118.911 170.35 122.84C170.5 124.4 170.57 125.95 170.59 127.49H152.41V111.29H167.95ZM148.71 95.2899C149.428 95.0859 150.165 94.9586 150.91 94.9099V109.82H135.91C138.71 102.28 143.25 96.7999 148.71 95.2599V95.2899ZM150.91 129.02V145.22H135.38C134.143 141.465 133.344 137.579 133 133.64C132.86 132.08 132.78 130.53 132.76 128.99L150.91 129.02ZM150.91 146.72V161.64C148.748 161.442 146.677 160.673 144.91 159.41C141.21 156.87 138.1 152.41 135.91 146.72H150.91ZM154.61 161.25C153.892 161.455 153.155 161.582 152.41 161.63V146.69H167.41C164.61 154.2 160.07 159.69 154.61 161.22V161.25ZM152.41 145.25V129H170.59C170.562 134.503 169.678 139.968 167.97 145.2L152.41 145.25ZM172.09 129H185.09C184.969 134.709 183.374 140.289 180.46 145.2H169.5C171.167 139.959 172.04 134.499 172.09 129V129ZM185.09 127.5H172.09C172.09 125.92 171.99 124.32 171.84 122.71C171.499 118.834 170.731 115.007 169.55 111.3H180.44C182.545 114.873 183.965 118.807 184.63 122.9C184.868 124.419 185.009 125.953 185.05 127.49L185.09 127.5ZM171.22 101.17C174.489 103.524 177.307 106.448 179.54 109.8H169C166.76 103.61 163.39 98.7099 159.26 95.8699L158.94 95.6599C163.35 96.6474 167.514 98.5184 171.18 101.16L171.22 101.17ZM144.35 95.6799C140.14 98.4499 136.68 103.49 134.35 109.8H123.85L124.58 108.73C129.329 102.101 136.352 97.4516 144.31 95.6699L144.35 95.6799ZM118.35 129H131.3C131.3 130.58 131.4 132.18 131.55 133.79C131.896 137.665 132.664 141.491 133.84 145.2H122.89C120.781 141.629 119.36 137.694 118.7 133.6C118.451 132.078 118.311 130.541 118.28 129H118.35ZM123.89 146.7H134.35C136.59 152.89 139.96 157.79 144.09 160.63L144.42 160.84C136.018 158.932 128.669 153.87 123.89 146.7V146.7ZM159 160.81C163.2 158.05 166.66 153 169 146.69H179.48C179.24 147.05 179 147.41 178.75 147.76C173.997 154.392 166.965 159.039 159 160.81Z" fill="#FAFAFA"/>
<path d="M414.29 144.9H99.8901V221.08H414.29V144.9Z" fill="url(#paint1_linear_61720:3245)"/>
<path opacity="0.6" d="M414.29 144.9H99.8901V221.08H414.29V144.9Z" fill="#FAFAFA"/>
<path d="M407.2 151.99H92.8V228.17H407.2V151.99Z" fill="url(#paint2_linear_61720:3245)"/>
<path opacity="0.3" d="M407.2 151.99H92.8V228.17H407.2V151.99Z" fill="black"/>
<path d="M400.11 159.08H85.7102V235.26H400.11V159.08Z" fill="url(#paint3_linear_61720:3245)"/>
<path opacity="0.1" d="M400.11 159.08H85.7102V235.26H400.11V159.08Z" fill="#FAFAFA"/>
<path d="M385.11 220.26V174.08L100.71 174.08V220.26H385.11Z" fill="url(#paint4_linear_61720:3245)"/>
<path opacity="0.9" d="M385.11 220.26V174.08L100.71 174.08V220.26H385.11Z" fill="#FAFAFA"/>
<path d="M337.27 174.08V220.26H338.94V174.08H337.27Z" fill="url(#paint5_linear_61720:3245)"/>
<path opacity="0.6" d="M337.27 174.08V220.26H338.94V174.08H337.27Z" fill="#FAFAFA"/>
<path d="M107.8 180.45V213.89H109.47V180.45H107.8Z" fill="url(#paint6_linear_61720:3245)"/>
<path opacity="0.6" d="M107.8 180.45V213.89H109.47V180.45H107.8Z" fill="#FAFAFA"/>
<path d="M360.43 203C359.217 202.999 358.022 202.7 356.952 202.127C355.882 201.555 354.97 200.728 354.296 199.719C353.622 198.71 353.207 197.55 353.089 196.342C352.97 195.135 353.151 193.916 353.615 192.795C354.08 191.674 354.813 190.685 355.751 189.915C356.689 189.145 357.803 188.619 358.993 188.382C360.183 188.145 361.413 188.205 362.574 188.557C363.735 188.909 364.792 189.542 365.65 190.4V190.4C366.683 191.432 367.386 192.747 367.671 194.179C367.956 195.611 367.81 197.096 367.251 198.445C366.692 199.794 365.746 200.946 364.532 201.757C363.318 202.568 361.89 203.001 360.43 203V203ZM360.43 190.25C359.185 190.25 357.979 190.682 357.017 191.473C356.055 192.263 355.397 193.362 355.154 194.584C354.912 195.805 355.101 197.072 355.689 198.17C356.277 199.267 357.227 200.127 358.377 200.602C359.528 201.078 360.808 201.139 361.999 200.777C363.19 200.414 364.218 199.65 364.909 198.614C365.599 197.578 365.909 196.334 365.785 195.095C365.661 193.857 365.112 192.699 364.23 191.82V191.82C363.736 191.311 363.146 190.905 362.493 190.627C361.841 190.349 361.139 190.204 360.43 190.2V190.25Z" fill="url(#paint7_linear_61720:3245)"/>
<path d="M370 206.14C369.868 206.14 369.737 206.113 369.615 206.061C369.493 206.01 369.383 205.935 369.29 205.84L364.24 200.79C364.135 200.7 364.05 200.59 363.99 200.466C363.93 200.342 363.897 200.207 363.891 200.069C363.886 199.931 363.909 199.794 363.96 199.666C364.01 199.537 364.086 199.421 364.184 199.323C364.281 199.226 364.398 199.15 364.526 199.099C364.654 199.049 364.791 199.026 364.929 199.031C365.067 199.037 365.202 199.07 365.326 199.13C365.45 199.19 365.561 199.275 365.65 199.38L370.7 204.43C370.886 204.617 370.991 204.871 370.991 205.135C370.991 205.399 370.886 205.653 370.7 205.84C370.516 206.028 370.264 206.136 370 206.14V206.14Z" fill="url(#paint8_linear_61720:3245)"/>
<g opacity="0.6">
<path opacity="0.6" d="M360.43 203C359.217 202.999 358.022 202.7 356.952 202.127C355.882 201.555 354.97 200.728 354.296 199.719C353.622 198.71 353.207 197.55 353.089 196.342C352.97 195.135 353.151 193.916 353.615 192.795C354.08 191.674 354.813 190.685 355.751 189.915C356.689 189.145 357.803 188.619 358.993 188.382C360.183 188.145 361.413 188.205 362.574 188.557C363.735 188.909 364.792 189.542 365.65 190.4V190.4C366.683 191.432 367.386 192.747 367.671 194.179C367.956 195.611 367.81 197.096 367.251 198.445C366.692 199.794 365.746 200.946 364.532 201.757C363.318 202.568 361.89 203.001 360.43 203V203ZM360.43 190.25C359.185 190.25 357.979 190.682 357.017 191.473C356.055 192.263 355.397 193.362 355.154 194.584C354.912 195.805 355.101 197.072 355.689 198.17C356.277 199.267 357.227 200.127 358.377 200.602C359.528 201.078 360.808 201.139 361.999 200.777C363.19 200.414 364.218 199.65 364.909 198.614C365.599 197.578 365.909 196.334 365.785 195.095C365.661 193.857 365.112 192.699 364.23 191.82V191.82C363.736 191.311 363.146 190.905 362.493 190.627C361.841 190.349 361.139 190.204 360.43 190.2V190.25Z" fill="#FAFAFA"/>
<path opacity="0.6" d="M370 206.14C369.868 206.14 369.737 206.113 369.615 206.061C369.493 206.01 369.383 205.935 369.29 205.84L364.24 200.79C364.135 200.7 364.05 200.59 363.99 200.466C363.93 200.342 363.897 200.207 363.891 200.069C363.886 199.931 363.909 199.794 363.96 199.666C364.01 199.537 364.086 199.421 364.184 199.323C364.281 199.226 364.398 199.15 364.526 199.099C364.654 199.049 364.791 199.026 364.929 199.031C365.067 199.037 365.202 199.07 365.326 199.13C365.45 199.19 365.561 199.275 365.65 199.38L370.7 204.43C370.886 204.617 370.991 204.871 370.991 205.135C370.991 205.399 370.886 205.653 370.7 205.84C370.516 206.028 370.264 206.136 370 206.14V206.14Z" fill="#FAFAFA"/>
</g>
<path d="M292.59 98.8501H261.15V99.6301H292.59V98.8501Z" fill="url(#paint9_linear_61720:3245)"/>
<path d="M292.59 102.16H261.15V102.94H292.59V102.16Z" fill="url(#paint10_linear_61720:3245)"/>
<path d="M292.59 105.48H261.15V106.26H292.59V105.48Z" fill="url(#paint11_linear_61720:3245)"/>
<path d="M292.59 108.79H261.15V109.57H292.59V108.79Z" fill="url(#paint12_linear_61720:3245)"/>
<path d="M292.59 112.1H261.15V112.88H292.59V112.1Z" fill="url(#paint13_linear_61720:3245)"/>
<path d="M281.65 115.42H261.15V116.2H281.65V115.42Z" fill="url(#paint14_linear_61720:3245)"/>
<g opacity="0.5">
<path opacity="0.5" d="M292.59 98.8501H261.15V99.6301H292.59V98.8501Z" fill="#FAFAFA"/>
<path opacity="0.5" d="M292.59 102.16H261.15V102.94H292.59V102.16Z" fill="#FAFAFA"/>
<path opacity="0.5" d="M292.59 105.48H261.15V106.26H292.59V105.48Z" fill="#FAFAFA"/>
<path opacity="0.5" d="M292.59 108.79H261.15V109.57H292.59V108.79Z" fill="#FAFAFA"/>
<path opacity="0.5" d="M292.59 112.1H261.15V112.88H292.59V112.1Z" fill="#FAFAFA"/>
<path opacity="0.5" d="M281.65 115.42H261.15V116.2H281.65V115.42Z" fill="#FAFAFA"/>
</g>
<path d="M103.35 241.84H69.8501V242.34H103.35V241.84Z" fill="url(#paint15_linear_61720:3245)"/>
<path d="M103.35 243.96H69.8501V244.46H103.35V243.96Z" fill="url(#paint16_linear_61720:3245)"/>
<path d="M103.35 246.08H69.8501V246.58H103.35V246.08Z" fill="url(#paint17_linear_61720:3245)"/>
<path d="M103.35 248.2H69.8501V248.7H103.35V248.2Z" fill="url(#paint18_linear_61720:3245)"/>
<path d="M103.35 250.32H69.8501V250.82H103.35V250.32Z" fill="url(#paint19_linear_61720:3245)"/>
<path d="M90.9101 252.45H69.8501V252.95H90.9101V252.45Z" fill="url(#paint20_linear_61720:3245)"/>
<g opacity="0.4">
<path opacity="0.4" d="M103.35 241.84H69.8501V242.34H103.35V241.84Z" fill="#FAFAFA"/>
<path opacity="0.4" d="M103.35 243.96H69.8501V244.46H103.35V243.96Z" fill="#FAFAFA"/>
<path opacity="0.4" d="M103.35 246.08H69.8501V246.58H103.35V246.08Z" fill="#FAFAFA"/>
<path opacity="0.4" d="M103.35 248.2H69.8501V248.7H103.35V248.2Z" fill="#FAFAFA"/>
<path opacity="0.4" d="M103.35 250.32H69.8501V250.82H103.35V250.32Z" fill="#FAFAFA"/>
<path opacity="0.4" d="M90.9101 252.45H69.8501V252.95H90.9101V252.45Z" fill="#FAFAFA"/>
</g>
<path d="M213.45 103.76C211.774 103.76 210.166 104.426 208.981 105.611C207.796 106.796 207.13 108.404 207.13 110.08V130.93C207.13 132.606 207.796 134.214 208.981 135.399C210.166 136.584 211.774 137.25 213.45 137.25V137.25C215.126 137.25 216.734 136.584 217.919 135.399C219.104 134.214 219.77 132.606 219.77 130.93V110.08C219.77 108.404 219.104 106.796 217.919 105.611C216.734 104.426 215.126 103.76 213.45 103.76V103.76Z" fill="url(#paint21_linear_61720:3245)"/>
<path opacity="0.2" d="M213.45 103.76C211.774 103.76 210.166 104.426 208.981 105.611C207.796 106.796 207.13 108.404 207.13 110.08V130.93C207.13 132.606 207.796 134.214 208.981 135.399C210.166 136.584 211.774 137.25 213.45 137.25V137.25C215.126 137.25 216.734 136.584 217.919 135.399C219.104 134.214 219.77 132.606 219.77 130.93V110.08C219.77 108.404 219.104 106.796 217.919 105.611C216.734 104.426 215.126 103.76 213.45 103.76V103.76Z" fill="#FAFAFA"/>
<path d="M229.29 91.3299C227.619 91.3378 226.019 92.0072 224.84 93.1916C223.662 94.3759 223 95.9789 223 97.6499V130.93C223 132.606 223.666 134.214 224.851 135.399C226.036 136.584 227.644 137.25 229.32 137.25V137.25C230.996 137.25 232.604 136.584 233.789 135.399C234.974 134.214 235.64 132.606 235.64 130.93V97.6499C235.64 96.8174 235.476 95.9931 235.156 95.2244C234.837 94.4557 234.368 93.7576 233.778 93.1704C233.188 92.5831 232.488 92.1182 231.718 91.8023C230.948 91.4865 230.122 91.326 229.29 91.3299Z" fill="url(#paint22_linear_61720:3245)"/>
<path opacity="0.3" d="M229.29 91.3299C227.619 91.3378 226.019 92.0072 224.84 93.1916C223.662 94.3759 223 95.9789 223 97.6499V130.93C223 132.606 223.666 134.214 224.851 135.399C226.036 136.584 227.644 137.25 229.32 137.25V137.25C230.996 137.25 232.604 136.584 233.789 135.399C234.974 134.214 235.64 132.606 235.64 130.93V97.6499C235.64 96.8174 235.476 95.9931 235.156 95.2244C234.837 94.4557 234.368 93.7576 233.778 93.1704C233.188 92.5831 232.488 92.1182 231.718 91.8023C230.948 91.4865 230.122 91.326 229.29 91.3299Z" fill="black"/>
<path d="M245.12 116.19C243.444 116.19 241.837 116.856 240.651 118.041C239.466 119.226 238.8 120.834 238.8 122.51V130.93C238.8 132.606 239.466 134.214 240.651 135.399C241.837 136.584 243.444 137.25 245.12 137.25V137.25C245.951 137.251 246.774 137.089 247.542 136.772C248.31 136.455 249.008 135.989 249.596 135.402C250.184 134.815 250.65 134.118 250.968 133.351C251.286 132.583 251.45 131.761 251.45 130.93V122.51C251.45 121.679 251.286 120.857 250.968 120.089C250.65 119.322 250.184 118.624 249.596 118.037C249.008 117.45 248.31 116.985 247.542 116.668C246.774 116.351 245.951 116.189 245.12 116.19V116.19Z" fill="url(#paint23_linear_61720:3245)"/>
<path opacity="0.6" d="M245.12 116.19C243.444 116.19 241.837 116.856 240.651 118.041C239.466 119.226 238.8 120.834 238.8 122.51V130.93C238.8 132.606 239.466 134.214 240.651 135.399C241.837 136.584 243.444 137.25 245.12 137.25V137.25C245.951 137.251 246.774 137.089 247.542 136.772C248.31 136.455 249.008 135.989 249.596 135.402C250.184 134.815 250.65 134.118 250.968 133.351C251.286 132.583 251.45 131.761 251.45 130.93V122.51C251.45 121.679 251.286 120.857 250.968 120.089C250.65 119.322 250.184 118.624 249.596 118.037C249.008 117.45 248.31 116.985 247.542 116.668C246.774 116.351 245.951 116.189 245.12 116.19V116.19Z" fill="#FAFAFA"/>
<path d="M378.61 259.13H404.16L360.54 213.89L378.61 259.13Z" fill="url(#paint24_linear_61720:3245)"/>
<g opacity="0.1">
<path opacity="0.1" d="M378.61 259.13H404.16L360.54 213.89L378.61 259.13Z" fill="black"/>
</g>
<g style="mix-blend-mode:multiply">
<path d="M354.05 235.25L360.54 213.89L364.22 235.25H354.05Z" fill="url(#paint25_linear_61720:3245)"/>
</g>
<path d="M360.54 213.89V277.19L365.06 272.68L378.61 259.13L360.54 213.89Z" fill="url(#paint26_linear_61720:3245)"/>
<path opacity="0.3" d="M360.54 213.89V277.19L365.06 272.68L378.61 259.13L360.54 213.89Z" fill="#FAFAFA"/>
<path d="M405.72 78.11H349.72C346.882 78.1205 344.163 79.2519 342.155 81.2579C340.147 83.2638 339.013 85.9818 339 88.82V117.74C339.013 120.576 340.146 123.293 342.151 125.299C344.157 127.304 346.874 128.437 349.71 128.45H390.8L390.5 138.56L400.87 128.45H405.7C408.538 128.439 411.257 127.308 413.265 125.302C415.273 123.296 416.407 120.578 416.42 117.74V88.82C416.407 85.9853 415.276 83.2703 413.272 81.2649C411.269 79.2595 408.555 78.1258 405.72 78.11V78.11ZM348.46 90.43C348.46 89.6343 348.776 88.8713 349.339 88.3087C349.901 87.7461 350.664 87.43 351.46 87.43H364.35C365.146 87.43 365.909 87.7461 366.471 88.3087C367.034 88.8713 367.35 89.6343 367.35 90.43C367.35 91.2256 367.034 91.9887 366.471 92.5513C365.909 93.1139 365.146 93.43 364.35 93.43H351.45C350.656 93.4273 349.896 93.1101 349.335 92.5478C348.775 91.9855 348.46 91.2239 348.46 90.43V90.43ZM402.54 118.43H380.26C379.829 118.506 379.386 118.486 378.963 118.372C378.541 118.258 378.148 118.054 377.813 117.772C377.477 117.49 377.208 117.139 377.023 116.742C376.838 116.345 376.742 115.913 376.742 115.475C376.742 115.037 376.838 114.605 377.023 114.208C377.208 113.811 377.477 113.46 377.813 113.178C378.148 112.896 378.541 112.692 378.963 112.578C379.386 112.464 379.829 112.444 380.26 112.52H402.54C402.971 112.444 403.414 112.464 403.837 112.578C404.259 112.692 404.652 112.896 404.987 113.178C405.323 113.46 405.592 113.811 405.777 114.208C405.962 114.605 406.058 115.037 406.058 115.475C406.058 115.913 405.962 116.345 405.777 116.742C405.592 117.139 405.323 117.49 404.987 117.772C404.652 118.054 404.259 118.258 403.837 118.372C403.414 118.486 402.971 118.506 402.54 118.43V118.43ZM402.54 105.92H354.45C354.019 105.996 353.576 105.976 353.153 105.862C352.731 105.748 352.338 105.544 352.003 105.262C351.667 104.98 351.398 104.629 351.213 104.232C351.028 103.835 350.932 103.403 350.932 102.965C350.932 102.527 351.028 102.095 351.213 101.698C351.398 101.301 351.667 100.95 352.003 100.668C352.338 100.386 352.731 100.182 353.153 100.068C353.576 99.9542 354.019 99.9344 354.45 100.01H402.54C402.971 99.9344 403.414 99.9542 403.837 100.068C404.259 100.182 404.652 100.386 404.987 100.668C405.323 100.95 405.592 101.301 405.777 101.698C405.962 102.095 406.058 102.527 406.058 102.965C406.058 103.403 405.962 103.835 405.777 104.232C405.592 104.629 405.323 104.98 404.987 105.262C404.652 105.544 404.259 105.748 403.837 105.862C403.414 105.976 402.971 105.996 402.54 105.92V105.92ZM402.54 93.41H374.07C373.274 93.41 372.511 93.0939 371.949 92.5313C371.386 91.9687 371.07 91.2056 371.07 90.41C371.07 89.6143 371.386 88.8513 371.949 88.2887C372.511 87.7261 373.274 87.41 374.07 87.41H402.54C403.336 87.41 404.099 87.7261 404.661 88.2887C405.224 88.8513 405.54 89.6143 405.54 90.41C405.54 91.2056 405.224 91.9687 404.661 92.5313C404.099 93.0939 403.336 93.41 402.54 93.41Z" fill="url(#paint27_linear_61720:3245)"/>
<path d="M318.14 169.78C315.748 163.21 312.097 157.17 307.39 152H227.88C223.173 157.17 219.522 163.21 217.13 169.78L228.13 224.54C236.545 233.662 247.859 239.59 260.149 241.317C272.44 243.043 284.949 240.461 295.551 234.01C306.154 227.559 314.196 217.636 318.312 205.928C322.428 194.219 322.364 181.447 318.13 169.78H318.14Z" fill="url(#paint28_linear_61720:3245)"/>
<path opacity="0.1" d="M318.14 169.78C315.748 163.21 312.097 157.17 307.39 152H227.88C223.173 157.17 219.522 163.21 217.13 169.78L228.13 224.54C236.545 233.662 247.859 239.59 260.149 241.317C272.44 243.043 284.949 240.461 295.551 234.01C306.154 227.559 314.196 217.636 318.312 205.928C322.428 194.219 322.364 181.447 318.13 169.78H318.14Z" fill="#FAFAFA"/>
<path d="M321.31 190.61C320.742 203.237 315.726 215.256 307.15 224.54H228.15C221.481 217.293 216.928 208.355 214.989 198.699C213.049 189.043 213.797 179.04 217.15 169.78H318.15C320.576 176.445 321.65 183.526 321.31 190.61V190.61Z" fill="url(#paint29_linear_61720:3245)"/>
<path opacity="0.9" d="M321.31 190.61C320.742 203.237 315.726 215.256 307.15 224.54H228.15C221.481 217.293 216.928 208.355 214.989 198.699C213.049 189.043 213.797 179.04 217.15 169.78H318.15C320.576 176.445 321.65 183.526 321.31 190.61V190.61Z" fill="#FAFAFA"/>
<path opacity="0.3" d="M321.31 190.61C320.688 203.897 315.149 216.479 305.768 225.91C296.387 235.341 283.836 240.948 270.552 241.641C257.268 242.334 244.201 238.064 233.89 229.66C223.579 221.256 216.76 209.32 214.759 196.169C212.758 183.019 215.717 169.594 223.061 158.504C230.405 147.413 241.611 139.449 254.499 136.159C267.388 132.869 281.039 134.488 292.801 140.702C304.562 146.915 313.594 157.279 318.14 169.78C320.566 176.445 321.643 183.525 321.31 190.61V190.61Z" fill="white"/>
<path opacity="0.4" d="M297.92 143.76L220.66 214.22C220.273 213.507 219.893 212.787 219.52 212.06C217.158 207.331 215.516 202.275 214.65 197.06V197.06L281.38 136.2C287.285 137.756 292.879 140.313 297.92 143.76Z" fill="white"/>
<path opacity="0.4" d="M318.59 171.07L246 237.31C238.47 233.988 231.805 228.979 226.52 222.67L305.84 150.33C311.62 156.177 315.982 163.272 318.59 171.07V171.07Z" fill="white"/>
<path d="M321.29 157.15C315.162 146.524 306.02 137.955 295.021 132.527C284.021 127.098 271.659 125.054 259.497 126.654C247.336 128.253 235.922 133.424 226.701 141.512C217.479 149.6 210.863 160.241 207.691 172.09C204.519 183.939 204.933 196.463 208.88 208.076C212.827 219.69 220.13 229.872 229.866 237.333C239.601 244.795 251.331 249.201 263.572 249.995C275.812 250.788 288.013 247.933 298.63 241.79C312.85 233.563 323.224 220.028 327.473 204.158C331.721 188.289 329.498 171.381 321.29 157.15V157.15ZM225.29 212.59C220.455 204.216 218.212 194.597 218.844 184.948C219.476 175.3 222.954 166.055 228.84 158.383C234.726 150.712 242.755 144.958 251.911 141.849C261.066 138.74 270.939 138.416 280.279 140.918C289.619 143.42 298.007 148.635 304.383 155.904C310.76 163.173 314.837 172.17 316.1 181.756C317.363 191.343 315.756 201.089 311.48 209.761C307.205 218.434 300.453 225.644 292.08 230.48C286.521 233.691 280.383 235.775 274.018 236.614C267.654 237.452 261.186 237.029 254.984 235.368C248.783 233.707 242.97 230.84 237.877 226.932C232.783 223.023 228.51 218.15 225.3 212.59H225.29Z" fill="url(#paint30_linear_61720:3245)"/>
<path opacity="0.1" d="M321.29 157.15C315.162 146.524 306.02 137.955 295.021 132.527C284.021 127.098 271.659 125.054 259.497 126.654C247.336 128.253 235.922 133.424 226.701 141.512C217.479 149.6 210.863 160.241 207.691 172.09C204.519 183.939 204.933 196.463 208.88 208.076C212.827 219.69 220.13 229.872 229.866 237.333C239.601 244.795 251.331 249.201 263.572 249.995C275.812 250.788 288.013 247.933 298.63 241.79C312.85 233.563 323.224 220.028 327.473 204.158C331.721 188.289 329.498 171.381 321.29 157.15V157.15ZM225.29 212.59C220.455 204.216 218.212 194.597 218.844 184.948C219.476 175.3 222.954 166.055 228.84 158.383C234.726 150.712 242.755 144.958 251.911 141.849C261.066 138.74 270.939 138.416 280.279 140.918C289.619 143.42 298.007 148.635 304.383 155.904C310.76 163.173 314.837 172.17 316.1 181.756C317.363 191.343 315.756 201.089 311.48 209.761C307.205 218.434 300.453 225.644 292.08 230.48C286.521 233.691 280.383 235.775 274.018 236.614C267.654 237.452 261.186 237.029 254.984 235.368C248.783 233.707 242.97 230.84 237.877 226.932C232.783 223.023 228.51 218.15 225.3 212.59H225.29Z" fill="black"/>
<path d="M125.06 251.89L132.72 253.67L126.37 258.41C126.37 258.41 121.82 256.35 121.61 253.12L125.06 251.89Z" fill="#E4897B"/>
<path d="M136.82 258.77L131.3 262.45L126.37 258.41L132.72 253.68L136.82 258.77Z" fill="#E4897B"/>
<path d="M223.47 220.78C215.33 226.78 206.98 232.48 198.59 238.05C190.2 243.62 181.7 249.05 173.16 254.38C164.62 259.71 156 264.93 147.35 270C143.03 272.58 138.67 275.08 134.35 277.62C132.204 278.986 129.864 280.021 127.41 280.69C126.101 281.037 124.761 281.262 123.41 281.36C121.91 281.482 120.4 281.405 118.92 281.13C117.862 280.921 116.856 280.505 115.96 279.907C115.063 279.308 114.293 278.539 113.694 277.643C113.095 276.746 112.678 275.741 112.468 274.683C112.258 273.626 112.259 272.537 112.47 271.48C112.539 271.14 112.632 270.806 112.75 270.48C113.233 269.062 113.906 267.717 114.75 266.48C115.503 265.368 116.361 264.33 117.31 263.38C119.119 261.589 121.185 260.079 123.44 258.9C127.81 256.41 132.15 253.9 136.55 251.43C145.31 246.48 154.15 241.66 163.01 236.9C171.87 232.14 180.84 227.53 189.86 223.03C198.88 218.53 207.97 214.15 217.25 210.11C218.651 209.491 220.23 209.411 221.686 209.885C223.142 210.36 224.371 211.356 225.138 212.682C225.904 214.007 226.153 215.569 225.838 217.068C225.523 218.566 224.665 219.895 223.43 220.8L223.47 220.78Z" fill="url(#paint31_linear_61720:3245)"/>
<path opacity="0.1" d="M223.47 220.78C215.33 226.78 206.98 232.48 198.59 238.05C190.2 243.62 181.7 249.05 173.16 254.38C164.62 259.71 156 264.93 147.35 270C143.03 272.58 138.67 275.08 134.35 277.62C132.204 278.986 129.864 280.021 127.41 280.69C126.101 281.037 124.761 281.262 123.41 281.36C121.91 281.482 120.4 281.405 118.92 281.13C117.862 280.921 116.856 280.505 115.96 279.907C115.063 279.308 114.293 278.539 113.694 277.643C113.095 276.746 112.678 275.741 112.468 274.683C112.258 273.626 112.259 272.537 112.47 271.48C112.539 271.14 112.632 270.806 112.75 270.48C113.233 269.062 113.906 267.717 114.75 266.48C115.503 265.368 116.361 264.33 117.31 263.38C119.119 261.589 121.185 260.079 123.44 258.9C127.81 256.41 132.15 253.9 136.55 251.43C145.31 246.48 154.15 241.66 163.01 236.9C171.87 232.14 180.84 227.53 189.86 223.03C198.88 218.53 207.97 214.15 217.25 210.11C218.651 209.491 220.23 209.411 221.686 209.885C223.142 210.36 224.371 211.356 225.138 212.682C225.904 214.007 226.153 215.569 225.838 217.068C225.523 218.566 224.665 219.895 223.43 220.8L223.47 220.78Z" fill="black"/>
<path d="M136.16 204.52C135.66 205.33 135.09 206.31 134.55 207.23C134.01 208.15 133.48 209.11 132.98 210.08C131.98 211.99 130.98 213.93 129.98 215.9C128.98 217.87 128.17 219.9 127.35 221.9C126.95 222.9 126.53 223.9 126.16 224.9L125.6 226.43C125.49 226.72 125.47 226.84 125.4 227.05C125.33 227.26 125.3 227.46 125.24 227.66C124.85 229.636 124.652 231.646 124.65 233.66C124.6 235.81 124.65 238 124.77 240.21C124.89 242.42 125.01 244.64 125.21 246.86C125.41 249.08 125.61 251.34 125.82 253.54L121.96 254.33C121.28 252.1 120.75 249.88 120.22 247.63C119.69 245.38 119.29 243.12 118.9 240.82C118.51 238.52 118.25 236.21 118.08 233.82C117.872 231.317 117.936 228.799 118.27 226.31C118.33 225.96 118.38 225.63 118.47 225.31C118.56 224.99 118.65 224.54 118.73 224.31L119.22 222.61C119.54 221.48 119.91 220.36 120.29 219.25C121.06 217.02 121.9 214.83 122.84 212.67C123.78 210.51 124.78 208.4 125.84 206.32C126.39 205.32 126.97 204.25 127.56 203.22C128.15 202.19 128.74 201.22 129.48 200.13L136.16 204.52Z" fill="#E4897B"/>
<path d="M131.89 411C131.215 410.979 130.545 410.885 129.89 410.72C129.855 410.714 129.823 410.698 129.797 410.672C129.772 410.647 129.756 410.615 129.75 410.58C129.744 410.544 129.748 410.507 129.762 410.473C129.776 410.439 129.8 410.411 129.83 410.39C130.1 410.21 132.46 408.69 133.37 409.1C133.471 409.146 133.558 409.219 133.621 409.311C133.685 409.402 133.722 409.509 133.73 409.62C133.777 409.798 133.774 409.986 133.721 410.162C133.668 410.339 133.567 410.497 133.43 410.62C132.979 410.928 132.432 411.063 131.89 411ZM130.36 410.46C131.72 410.73 132.74 410.68 133.13 410.32C133.216 410.238 133.278 410.134 133.312 410.02C133.345 409.906 133.348 409.785 133.32 409.67C133.319 409.619 133.303 409.569 133.275 409.527C133.246 409.484 133.207 409.451 133.16 409.43C132.69 409.22 131.32 409.88 130.36 410.46V410.46Z" fill="url(#paint32_linear_61720:3245)"/>
<path d="M129.88 410.73C129.851 410.739 129.819 410.739 129.79 410.73C129.761 410.715 129.737 410.691 129.722 410.663C129.706 410.635 129.698 410.602 129.7 410.57C129.7 410.48 129.7 408.24 130.55 407.49C130.655 407.396 130.779 407.324 130.913 407.281C131.048 407.238 131.19 407.224 131.33 407.24C131.477 407.242 131.62 407.295 131.733 407.389C131.846 407.484 131.922 407.615 131.95 407.76C132.13 408.63 130.71 410.31 129.95 410.76C129.925 410.756 129.901 410.745 129.88 410.73ZM131.21 407.57C131.058 407.571 130.913 407.628 130.8 407.73C130.308 408.454 130.056 409.315 130.08 410.19C130.82 409.59 131.7 408.33 131.59 407.8C131.59 407.71 131.52 407.61 131.29 407.58L131.21 407.57Z" fill="url(#paint33_linear_61720:3245)"/>
<path d="M167.31 411C166.486 410.987 165.665 410.894 164.86 410.72C164.822 410.716 164.786 410.698 164.759 410.671C164.731 410.644 164.714 410.608 164.71 410.57C164.706 410.532 164.713 410.493 164.731 410.459C164.748 410.426 164.776 410.398 164.81 410.38C165.16 410.2 168.26 408.62 169.21 409.14C169.301 409.187 169.379 409.257 169.435 409.342C169.491 409.428 169.524 409.527 169.53 409.63C169.552 409.795 169.532 409.963 169.473 410.118C169.413 410.273 169.316 410.412 169.19 410.52C168.637 410.891 167.973 411.061 167.31 411V411ZM165.47 410.46C167.2 410.75 168.47 410.67 168.95 410.25C169.03 410.176 169.09 410.083 169.127 409.981C169.164 409.878 169.175 409.768 169.16 409.66C169.16 409.619 169.148 409.579 169.127 409.544C169.106 409.508 169.076 409.48 169.04 409.46C168.52 409.18 166.74 409.85 165.47 410.46Z" fill="url(#paint34_linear_61720:3245)"/>
<path d="M164.89 410.73C164.874 410.737 164.857 410.74 164.84 410.74C164.823 410.74 164.806 410.737 164.79 410.73C164.761 410.716 164.738 410.692 164.724 410.663C164.709 410.634 164.704 410.602 164.71 410.57C164.71 410.48 164.9 408.38 165.87 407.57C166.149 407.337 166.508 407.222 166.87 407.25C167.38 407.3 167.52 407.56 167.56 407.77C167.7 408.65 165.87 410.33 164.94 410.77L164.89 410.73ZM166.75 407.57C166.515 407.572 166.289 407.657 166.11 407.81C165.536 408.487 165.187 409.326 165.11 410.21C166.05 409.64 167.3 408.32 167.21 407.79C167.21 407.79 167.21 407.61 166.85 407.58L166.75 407.57Z" fill="url(#paint35_linear_61720:3245)"/>
<path d="M148 174.49C148.61 179.16 150 188.63 146.62 191.49C146.62 191.49 147.62 196.25 156.14 196.8C165.56 197.41 160.94 192.42 160.94 192.42C155.88 190.86 156.26 187.05 157.39 183.53L148 174.49Z" fill="#E4897B"/>
<path d="M165.47 165C165.41 164.999 165.351 164.981 165.3 164.95C165.256 164.928 165.218 164.897 165.187 164.86C165.155 164.822 165.132 164.779 165.118 164.732C165.104 164.685 165.099 164.636 165.105 164.588C165.11 164.539 165.126 164.492 165.15 164.45C165.41 163.921 165.794 163.463 166.269 163.114C166.745 162.766 167.297 162.538 167.88 162.45C167.97 162.453 168.055 162.489 168.12 162.551C168.185 162.612 168.226 162.695 168.234 162.784C168.243 162.874 168.219 162.963 168.166 163.035C168.114 163.108 168.037 163.16 167.95 163.18V163.18C167.494 163.26 167.063 163.444 166.69 163.718C166.317 163.992 166.012 164.349 165.8 164.76C165.772 164.826 165.726 164.883 165.668 164.925C165.61 164.967 165.542 164.993 165.47 165V165Z" fill="#263238"/>
<path d="M168.16 169.1C168.849 170.473 169.724 171.745 170.76 172.88C170.463 173.138 170.113 173.328 169.735 173.437C169.357 173.546 168.959 173.571 168.57 173.51L168.16 169.1Z" fill="#DE5753"/>
<path d="M167.5 168.08C167.56 168.71 167.94 169.18 168.34 169.14C168.74 169.1 169.04 168.57 168.98 167.94C168.92 167.31 168.54 166.84 168.13 166.88C167.72 166.92 167.44 167.46 167.5 168.08Z" fill="#263238"/>
<path d="M168 166.93L169.46 166.36C169.46 166.36 168.76 167.6 168 166.93Z" fill="#263238"/>
<path d="M156.33 410.54H164.12L164.64 392.52H156.85L156.33 410.54Z" fill="#E4897B"/>
<path d="M120.96 410.54H128.75L131.25 392.52H123.47L120.96 410.54Z" fill="#E4897B"/>
<path d="M129.23 409.64H120.48C120.33 409.638 120.185 409.691 120.071 409.789C119.957 409.886 119.882 410.022 119.86 410.17L118.86 417.09C118.84 417.265 118.858 417.441 118.911 417.609C118.964 417.776 119.052 417.931 119.17 418.062C119.287 418.193 119.43 418.298 119.59 418.37C119.751 418.442 119.924 418.48 120.1 418.48C123.1 418.43 124.62 418.25 128.47 418.25C130.83 418.25 134.29 418.49 137.56 418.49C140.83 418.49 141 415.26 139.64 414.97C133.54 413.66 132.58 411.85 130.52 410.12C130.16 409.812 129.703 409.642 129.23 409.64V409.64Z" fill="#263238"/>
<path d="M164.38 409.64H155.64C155.49 409.636 155.343 409.688 155.229 409.786C155.114 409.884 155.04 410.021 155.02 410.17L154.02 417.09C154.002 417.265 154.021 417.442 154.075 417.61C154.13 417.777 154.219 417.931 154.337 418.062C154.454 418.193 154.598 418.298 154.759 418.37C154.92 418.442 155.094 418.479 155.27 418.48C158.27 418.43 159.79 418.25 163.63 418.25C166 418.25 170.89 418.49 174.16 418.49C177.43 418.49 177.6 415.26 176.24 414.97C170.14 413.66 167.74 411.85 165.68 410.12C165.318 409.81 164.857 409.64 164.38 409.64V409.64Z" fill="#263238"/>
<path d="M164.63 392.52L164.37 401.81H156.58L156.85 392.52H164.63Z" fill="#CE6F64"/>
<path d="M123.46 392.52H131.25L129.96 401.81H122.17L123.46 392.52Z" fill="#CE6F64"/>
<path d="M139.48 205.72C138.002 208.03 136.289 210.181 134.37 212.14L133.48 211.55L123.62 205C123.62 205 129 193 133.05 192.39C136.92 191.77 139.74 195.77 141.05 200.05C141.55 201.6 140.72 203.7 139.48 205.72Z" fill="url(#paint36_linear_61720:3245)"/>
<path opacity="0.6" d="M139.48 205.72C138.002 208.03 136.289 210.181 134.37 212.14L133.48 211.55L123.62 205C123.62 205 129 193 133.05 192.39C136.92 191.77 139.74 195.77 141.05 200.05C141.55 201.6 140.72 203.7 139.48 205.72Z" fill="#FAFAFA"/>
<path d="M139.48 205.72C138.002 208.03 136.289 210.181 134.37 212.14L133.48 211.55C133.92 207.95 135.32 204.38 136.92 203.25C137.9 203.35 138.77 204.39 139.48 205.72Z" fill="url(#paint37_linear_61720:3245)"/>
<path opacity="0.4" d="M139.48 205.72C138.002 208.03 136.289 210.181 134.37 212.14L133.48 211.55C133.92 207.95 135.32 204.38 136.92 203.25C137.9 203.35 138.77 204.39 139.48 205.72Z" fill="#FAFAFA"/>
<path d="M173.21 211.71C172.74 214.71 172.13 218.24 171.31 222.43C170.31 227.79 168.91 234.22 167.14 241.91L135.59 239.91C136.95 227.1 137.48 219.18 133.05 192.43C137.529 191.804 142.048 191.507 146.57 191.54C151.359 191.508 156.145 191.819 160.89 192.47C167.01 193.47 173.89 195.31 173.89 195.31C173.89 195.31 175.65 196 173.21 211.71Z" fill="url(#paint38_linear_61720:3245)"/>
<path opacity="0.6" d="M173.21 211.71C172.74 214.71 172.13 218.24 171.31 222.43C170.31 227.79 168.91 234.22 167.14 241.91L135.59 239.91C136.95 227.1 137.48 219.18 133.05 192.43C137.529 191.804 142.048 191.507 146.57 191.54C151.359 191.508 156.145 191.819 160.89 192.47C167.01 193.47 173.89 195.31 173.89 195.31C173.89 195.31 175.65 196 173.21 211.71Z" fill="#FAFAFA"/>
<path d="M173.21 211.71C172.74 214.71 172.13 218.24 171.31 222.43C169.575 218.739 168.134 214.917 167 211H172.86L173.21 211.71Z" fill="url(#paint39_linear_61720:3245)"/>
<path opacity="0.4" d="M173.21 211.71C172.74 214.71 172.13 218.24 171.31 222.43C169.575 218.739 168.134 214.917 167 211H172.86L173.21 211.71Z" fill="#FAFAFA"/>
<path d="M146.28 167.92C147.47 175.55 147.82 178.81 152.07 182.38C158.46 187.76 167.57 184.62 168.68 176.78C169.68 169.73 167.56 158.43 159.75 156.09C158.032 155.563 156.208 155.484 154.451 155.861C152.694 156.239 151.063 157.059 149.713 158.245C148.363 159.431 147.338 160.942 146.737 162.636C146.137 164.329 145.979 166.148 146.28 167.92V167.92Z" fill="#E4897B"/>
<path d="M158.8 241.37C158.8 241.37 158.3 255.26 157.1 272.78C156.1 287.48 154.59 304.72 152.48 318.46L152.42 318.84C148.63 343.16 131.84 400 131.84 400H121.22C121.22 400 129.97 345.1 131.89 321C136.76 260.13 124.56 253.24 135.59 239.82L158.8 241.37Z" fill="url(#paint40_linear_61720:3245)"/>
<path opacity="0.3" d="M158.8 241.37C158.8 241.37 158.3 255.26 157.1 272.78C156.1 287.48 154.59 304.72 152.48 318.46L152.42 318.84C148.63 343.16 131.84 400 131.84 400H121.22C121.22 400 129.97 345.1 131.89 321C136.76 260.13 124.56 253.24 135.59 239.82L158.8 241.37Z" fill="black"/>
<path d="M157.1 272.78C156.1 287.48 154.59 304.72 152.48 318.46C148.89 300.61 142.99 274.54 150.91 257.46C152.8 262.31 155 267.79 157.1 272.78Z" fill="url(#paint41_linear_61720:3245)"/>
<path opacity="0.4" d="M157.1 272.78C156.1 287.48 154.59 304.72 152.48 318.46C148.89 300.61 142.99 274.54 150.91 257.46C152.8 262.31 155 267.79 157.1 272.78Z" fill="black"/>
<path d="M167.14 241.92C167.14 241.92 176.14 295.26 175.6 319C175.07 343.7 166.02 400 166.02 400H155.5C155.5 400 157.16 345.13 156.23 320.88C155.23 294.44 144.03 240.41 144.03 240.41L167.14 241.92Z" fill="url(#paint42_linear_61720:3245)"/>
<path opacity="0.3" d="M167.14 241.92C167.14 241.92 176.14 295.26 175.6 319C175.07 343.7 166.02 400 166.02 400H155.5C155.5 400 157.16 345.13 156.23 320.88C155.23 294.44 144.03 240.41 144.03 240.41L167.14 241.92Z" fill="black"/>
<path d="M153.7 400.5H167.81L168.91 395.77L153.2 395.88L153.7 400.5Z" fill="#263238"/>
<path d="M119.68 400.5H133.79L134.89 395.77L119.78 395.88L119.68 400.5Z" fill="#263238"/>
<path d="M135.23 238L133.63 240.74C133.5 240.95 133.75 241.19 134.11 241.21L167.2 243.36C167.48 243.36 167.73 243.26 167.76 243.08L168.23 240.27C168.23 240.08 168.02 239.9 167.71 239.88L135.71 237.8C135.62 237.796 135.531 237.812 135.448 237.846C135.365 237.881 135.29 237.933 135.23 238V238Z" fill="#263238"/>
<path d="M139.29 241.84L138.44 241.78C138.27 241.78 138.14 241.67 138.16 241.57L138.8 237.92C138.8 237.82 138.97 237.74 139.14 237.75L140 237.8C140.17 237.8 140.29 237.91 140.28 238.02L139.64 241.66C139.62 241.77 139.46 241.85 139.29 241.84Z" fill="url(#paint43_linear_61720:3245)"/>
<path opacity="0.3" d="M139.29 241.84L138.44 241.78C138.27 241.78 138.14 241.67 138.16 241.57L138.8 237.92C138.8 237.82 138.97 237.74 139.14 237.75L140 237.8C140.17 237.8 140.29 237.91 140.28 238.02L139.64 241.66C139.62 241.77 139.46 241.85 139.29 241.84Z" fill="black"/>
<path d="M160 243.18L159.15 243.13C158.98 243.13 158.85 243.02 158.87 242.91L159.51 239.27C159.51 239.16 159.68 239.09 159.86 239.1L160.71 239.15C160.88 239.15 161.01 239.26 160.99 239.37L160.35 243.01C160.36 243.12 160.2 243.19 160 243.18Z" fill="url(#paint44_linear_61720:3245)"/>
<path opacity="0.3" d="M160 243.18L159.15 243.13C158.98 243.13 158.85 243.02 158.87 242.91L159.51 239.27C159.51 239.16 159.68 239.09 159.86 239.1L160.71 239.15C160.88 239.15 161.01 239.26 160.99 239.37L160.35 243.01C160.36 243.12 160.2 243.19 160 243.18Z" fill="black"/>
<path d="M175.68 203.31C176.88 207.31 178.02 211.36 179.13 215.4L182.48 227.49L182.9 228.99L183.01 229.36L183.06 229.55V229.65C183.096 229.782 183.139 229.913 183.19 230.04C183.435 230.648 183.773 231.214 184.19 231.72C185.384 232.98 186.767 234.046 188.29 234.88C191.778 236.768 195.468 238.257 199.29 239.32L198.71 243.22C194.226 242.989 189.809 242.033 185.63 240.39C183.318 239.484 181.187 238.17 179.34 236.51C178.282 235.529 177.402 234.372 176.74 233.09C176.561 232.744 176.404 232.386 176.27 232.02L176.16 231.75L176.09 231.56L175.96 231.19L175.43 229.68C174.03 225.68 172.73 221.68 171.5 217.62C170.27 213.56 169.06 209.56 167.96 205.48L175.68 203.31Z" fill="#E4897B"/>
<path d="M173.89 195.27C177.89 196.58 182.09 209.66 182.09 209.66L167.65 215.88C167.65 215.88 161.65 201.2 164.31 197.88C166.97 194.56 169.3 193.77 173.89 195.27Z" fill="url(#paint45_linear_61720:3245)"/>
<path opacity="0.6" d="M173.89 195.27C177.89 196.58 182.09 209.66 182.09 209.66L167.65 215.88C167.65 215.88 161.65 201.2 164.31 197.88C166.97 194.56 169.3 193.77 173.89 195.27Z" fill="#FAFAFA"/>
<path d="M166.17 155.65C163.62 152.5 143.92 150.25 142.87 158.83C135.87 163.73 142.51 176.39 143.51 179.61C138.68 180.95 123.12 186.27 134.51 196.61C145.9 206.95 162.98 205.19 166.32 194.49C168.66 187.01 161.23 174.49 161.39 170.11C161.55 165.73 170.54 161 166.17 155.65Z" fill="#263238"/>
<path d="M144.89 181.19C144.854 181.191 144.817 181.183 144.784 181.168C144.751 181.152 144.722 181.129 144.7 181.1C142.89 178.9 136.59 167.34 138.8 161.84C139.143 160.987 139.724 160.25 140.474 159.718C141.224 159.186 142.112 158.881 143.03 158.84C143.062 158.836 143.095 158.838 143.127 158.847C143.158 158.856 143.187 158.871 143.212 158.892C143.238 158.912 143.259 158.938 143.274 158.967C143.289 158.996 143.298 159.027 143.3 159.06C143.309 159.125 143.292 159.19 143.252 159.243C143.213 159.295 143.155 159.33 143.09 159.34C142.264 159.37 141.464 159.637 140.785 160.109C140.107 160.58 139.577 161.237 139.26 162C137.13 167.32 143.31 178.61 145.08 180.77C145.112 180.805 145.132 180.849 145.139 180.896C145.146 180.943 145.139 180.99 145.118 181.033C145.098 181.076 145.066 181.112 145.025 181.136C144.984 181.16 144.937 181.172 144.89 181.17V181.19Z" fill="#263238"/>
<path d="M159.83 169.64C160.053 171.1 160.757 172.445 161.83 173.46C163.25 174.82 164.59 173.89 164.72 172.16C164.84 170.61 164.24 168.04 162.56 167.32C160.88 166.6 159.62 167.91 159.83 169.64Z" fill="#E4897B"/>
<path d="M194.39 238.24L200.07 236.31L199.18 243.14C199.18 243.14 196.94 244.14 194.04 241.62L191.27 239.85L193.45 238.66C193.749 238.49 194.064 238.349 194.39 238.24Z" fill="#E4897B"/>
<path d="M204.04 236.29L202.3 242.26L199.18 243.13L200.07 236.31L204.04 236.29Z" fill="#E4897B"/>
<defs>
<linearGradient id="paint0_linear_61720:3245" x1="116.79" y1="95.0742" x2="198.591" y2="115.924" gradientUnits="userSpaceOnUse">
<stop stop-color="#FF008E"/>
<stop offset="1" stop-color="#FFCD1E"/>
</linearGradient>
<linearGradient id="paint1_linear_61720:3245" x1="99.8901" y1="146.707" x2="286.318" y2="342.766" gradientUnits="userSpaceOnUse">
<stop stop-color="#FF008E"/>
<stop offset="1" stop-color="#FFCD1E"/>
</linearGradient>
<linearGradient id="paint2_linear_61720:3245" x1="92.8" y1="153.797" x2="279.228" y2="349.856" gradientUnits="userSpaceOnUse">
<stop stop-color="#FF008E"/>
<stop offset="1" stop-color="#FFCD1E"/>
</linearGradient>
<linearGradient id="paint3_linear_61720:3245" x1="85.7102" y1="160.887" x2="272.138" y2="356.946" gradientUnits="userSpaceOnUse">
<stop stop-color="#FF008E"/>
<stop offset="1" stop-color="#FFCD1E"/>
</linearGradient>
<linearGradient id="paint4_linear_61720:3245" x1="378.364" y1="174.08" x2="375.982" y2="231.65" gradientUnits="userSpaceOnUse">
<stop stop-color="#FF008E"/>
<stop offset="1" stop-color="#FFCD1E"/>
</linearGradient>
<linearGradient id="paint5_linear_61720:3245" x1="337.31" y1="220.26" x2="345.332" y2="219.122" gradientUnits="userSpaceOnUse">
<stop stop-color="#FF008E"/>
<stop offset="1" stop-color="#FFCD1E"/>
</linearGradient>
<linearGradient id="paint6_linear_61720:3245" x1="107.84" y1="213.89" x2="115.721" y2="212.345" gradientUnits="userSpaceOnUse">
<stop stop-color="#FF008E"/>
<stop offset="1" stop-color="#FFCD1E"/>
</linearGradient>
<linearGradient id="paint7_linear_61720:3245" x1="353.053" y1="188.59" x2="370.361" y2="193.001" gradientUnits="userSpaceOnUse">
<stop stop-color="#FF008E"/>
<stop offset="1" stop-color="#FFCD1E"/>
</linearGradient>
<linearGradient id="paint8_linear_61720:3245" x1="363.891" y1="199.199" x2="372.218" y2="201.318" gradientUnits="userSpaceOnUse">
<stop stop-color="#FF008E"/>
<stop offset="1" stop-color="#FFCD1E"/>
</linearGradient>
<linearGradient id="paint9_linear_61720:3245" x1="261.15" y1="98.8686" x2="261.519" y2="102.655" gradientUnits="userSpaceOnUse">
<stop stop-color="#FF008E"/>
<stop offset="1" stop-color="#FFCD1E"/>
</linearGradient>
<linearGradient id="paint10_linear_61720:3245" x1="261.15" y1="102.178" x2="261.519" y2="105.965" gradientUnits="userSpaceOnUse">
<stop stop-color="#FF008E"/>
<stop offset="1" stop-color="#FFCD1E"/>
</linearGradient>
<linearGradient id="paint11_linear_61720:3245" x1="261.15" y1="105.498" x2="261.519" y2="109.285" gradientUnits="userSpaceOnUse">
<stop stop-color="#FF008E"/>
<stop offset="1" stop-color="#FFCD1E"/>
</linearGradient>
<linearGradient id="paint12_linear_61720:3245" x1="261.15" y1="108.809" x2="261.519" y2="112.595" gradientUnits="userSpaceOnUse">
<stop stop-color="#FF008E"/>
<stop offset="1" stop-color="#FFCD1E"/>
</linearGradient>
<linearGradient id="paint13_linear_61720:3245" x1="261.15" y1="112.119" x2="261.519" y2="115.905" gradientUnits="userSpaceOnUse">
<stop stop-color="#FF008E"/>
<stop offset="1" stop-color="#FFCD1E"/>
</linearGradient>
<linearGradient id="paint14_linear_61720:3245" x1="261.15" y1="115.438" x2="261.708" y2="119.178" gradientUnits="userSpaceOnUse">
<stop stop-color="#FF008E"/>
<stop offset="1" stop-color="#FFCD1E"/>
</linearGradient>
<linearGradient id="paint15_linear_61720:3245" x1="69.8501" y1="241.852" x2="69.9931" y2="244.294" gradientUnits="userSpaceOnUse">
<stop stop-color="#FF008E"/>
<stop offset="1" stop-color="#FFCD1E"/>
</linearGradient>
<linearGradient id="paint16_linear_61720:3245" x1="69.8501" y1="243.972" x2="69.9931" y2="246.414" gradientUnits="userSpaceOnUse">
<stop stop-color="#FF008E"/>
<stop offset="1" stop-color="#FFCD1E"/>
</linearGradient>
<linearGradient id="paint17_linear_61720:3245" x1="69.8501" y1="246.092" x2="69.9931" y2="248.534" gradientUnits="userSpaceOnUse">
<stop stop-color="#FF008E"/>
<stop offset="1" stop-color="#FFCD1E"/>
</linearGradient>
<linearGradient id="paint18_linear_61720:3245" x1="69.8501" y1="248.212" x2="69.9931" y2="250.654" gradientUnits="userSpaceOnUse">
<stop stop-color="#FF008E"/>
<stop offset="1" stop-color="#FFCD1E"/>
</linearGradient>
<linearGradient id="paint19_linear_61720:3245" x1="69.8501" y1="250.332" x2="69.9931" y2="252.774" gradientUnits="userSpaceOnUse">
<stop stop-color="#FF008E"/>
<stop offset="1" stop-color="#FFCD1E"/>
</linearGradient>
<linearGradient id="paint20_linear_61720:3245" x1="69.8501" y1="252.462" x2="70.0764" y2="254.891" gradientUnits="userSpaceOnUse">
<stop stop-color="#FF008E"/>
<stop offset="1" stop-color="#FFCD1E"/>
</linearGradient>
<linearGradient id="paint21_linear_61720:3245" x1="207.13" y1="104.554" x2="222.77" y2="106.059" gradientUnits="userSpaceOnUse">
<stop stop-color="#FF008E"/>
<stop offset="1" stop-color="#FFCD1E"/>
</linearGradient>
<linearGradient id="paint22_linear_61720:3245" x1="223" y1="92.4191" x2="238.707" y2="93.5208" gradientUnits="userSpaceOnUse">
<stop stop-color="#FF008E"/>
<stop offset="1" stop-color="#FFCD1E"/>
</linearGradient>
<linearGradient id="paint23_linear_61720:3245" x1="238.8" y1="116.689" x2="254.236" y2="119.052" gradientUnits="userSpaceOnUse">
<stop stop-color="#FF008E"/>
<stop offset="1" stop-color="#FFCD1E"/>
</linearGradient>
<linearGradient id="paint24_linear_61720:3245" x1="360.54" y1="214.963" x2="411.911" y2="227.585" gradientUnits="userSpaceOnUse">
<stop stop-color="#FF008E"/>
<stop offset="1" stop-color="#FFCD1E"/>
</linearGradient>
<linearGradient id="paint25_linear_61720:3245" x1="354.05" y1="214.397" x2="366.566" y2="215.915" gradientUnits="userSpaceOnUse">
<stop stop-color="#FF008E"/>
<stop offset="1" stop-color="#FFCD1E"/>
</linearGradient>
<linearGradient id="paint26_linear_61720:3245" x1="360.54" y1="215.391" x2="382.987" y2="217.024" gradientUnits="userSpaceOnUse">
<stop stop-color="#FF008E"/>
<stop offset="1" stop-color="#FFCD1E"/>
</linearGradient>
<linearGradient id="paint27_linear_61720:3245" x1="339" y1="79.5439" x2="426.374" y2="108.059" gradientUnits="userSpaceOnUse">
<stop stop-color="#FF008E"/>
<stop offset="1" stop-color="#FFCD1E"/>
</linearGradient>
<linearGradient id="paint28_linear_61720:3245" x1="217.13" y1="154.131" x2="336.821" y2="189.514" gradientUnits="userSpaceOnUse">
<stop stop-color="#FF008E"/>
<stop offset="1" stop-color="#FFCD1E"/>
</linearGradient>
<linearGradient id="paint29_linear_61720:3245" x1="213.935" y1="171.079" x2="321.271" y2="224.741" gradientUnits="userSpaceOnUse">
<stop stop-color="#FF008E"/>
<stop offset="1" stop-color="#FFCD1E"/>
</linearGradient>
<linearGradient id="paint30_linear_61720:3245" x1="205.582" y1="129.066" x2="350.988" y2="166.118" gradientUnits="userSpaceOnUse">
<stop stop-color="#FF008E"/>
<stop offset="1" stop-color="#FFCD1E"/>
</linearGradient>
<linearGradient id="paint31_linear_61720:3245" x1="112.311" y1="211.284" x2="234.401" y2="260.507" gradientUnits="userSpaceOnUse">
<stop stop-color="#FF008E"/>
<stop offset="1" stop-color="#FFCD1E"/>
</linearGradient>
<linearGradient id="paint32_linear_61720:3245" x1="129.747" y1="409.077" x2="133.709" y2="411.12" gradientUnits="userSpaceOnUse">
<stop stop-color="#FF008E"/>
<stop offset="1" stop-color="#FFCD1E"/>
</linearGradient>
<linearGradient id="paint33_linear_61720:3245" x1="129.7" y1="407.317" x2="132.455" y2="407.769" gradientUnits="userSpaceOnUse">
<stop stop-color="#FF008E"/>
<stop offset="1" stop-color="#FFCD1E"/>
</linearGradient>
<linearGradient id="paint34_linear_61720:3245" x1="164.709" y1="409.082" x2="169.055" y2="411.789" gradientUnits="userSpaceOnUse">
<stop stop-color="#FF008E"/>
<stop offset="1" stop-color="#FFCD1E"/>
</linearGradient>
<linearGradient id="paint35_linear_61720:3245" x1="164.708" y1="407.329" x2="168.133" y2="408.038" gradientUnits="userSpaceOnUse">
<stop stop-color="#FF008E"/>
<stop offset="1" stop-color="#FFCD1E"/>
</linearGradient>
<linearGradient id="paint36_linear_61720:3245" x1="123.62" y1="192.796" x2="144.504" y2="197.517" gradientUnits="userSpaceOnUse">
<stop stop-color="#FF008E"/>
<stop offset="1" stop-color="#FFCD1E"/>
</linearGradient>
<linearGradient id="paint37_linear_61720:3245" x1="133.48" y1="203.461" x2="140.757" y2="204.712" gradientUnits="userSpaceOnUse">
<stop stop-color="#FF008E"/>
<stop offset="1" stop-color="#FFCD1E"/>
</linearGradient>
<linearGradient id="paint38_linear_61720:3245" x1="133.05" y1="192.732" x2="182.636" y2="203.131" gradientUnits="userSpaceOnUse">
<stop stop-color="#FF008E"/>
<stop offset="1" stop-color="#FFCD1E"/>
</linearGradient>
<linearGradient id="paint39_linear_61720:3245" x1="167" y1="211.271" x2="174.609" y2="212.325" gradientUnits="userSpaceOnUse">
<stop stop-color="#FF008E"/>
<stop offset="1" stop-color="#FFCD1E"/>
</linearGradient>
<linearGradient id="paint40_linear_61720:3245" x1="121.22" y1="243.619" x2="167.982" y2="246.415" gradientUnits="userSpaceOnUse">
<stop stop-color="#FF008E"/>
<stop offset="1" stop-color="#FFCD1E"/>
</linearGradient>
<linearGradient id="paint41_linear_61720:3245" x1="146.977" y1="258.907" x2="159.596" y2="259.441" gradientUnits="userSpaceOnUse">
<stop stop-color="#FF008E"/>
<stop offset="1" stop-color="#FFCD1E"/>
</linearGradient>
<linearGradient id="paint42_linear_61720:3245" x1="144.03" y1="244.195" x2="183.383" y2="246.181" gradientUnits="userSpaceOnUse">
<stop stop-color="#FF008E"/>
<stop offset="1" stop-color="#FFCD1E"/>
</linearGradient>
<linearGradient id="paint43_linear_61720:3245" x1="138.158" y1="237.846" x2="140.763" y2="238.19" gradientUnits="userSpaceOnUse">
<stop stop-color="#FF008E"/>
<stop offset="1" stop-color="#FFCD1E"/>
</linearGradient>
<linearGradient id="paint44_linear_61720:3245" x1="158.868" y1="239.196" x2="161.475" y2="239.542" gradientUnits="userSpaceOnUse">
<stop stop-color="#FF008E"/>
<stop offset="1" stop-color="#FFCD1E"/>
</linearGradient>
<linearGradient id="paint45_linear_61720:3245" x1="163.63" y1="195.047" x2="185.614" y2="199.894" gradientUnits="userSpaceOnUse">
<stop stop-color="#FF008E"/>
<stop offset="1" stop-color="#FFCD1E"/>
</linearGradient>
</defs>
</svg>
