<svg xmlns="http://www.w3.org/2000/svg" width="88" height="89" fill="none" xmlns:v="https://vecta.io/nano"><path d="M53.221 33.103l-3.171-.462c-.097 0-.194 0-.194.097l-1.343 1.723a.57.57 0 0 0-.097.383c0 .097-.097.291-.19.194l-1.06-.286c-.19 0-.384 0-.463.189l-4.324 5.542c-.097.097-.194.097-.384.097l-1.634-.767a.43.43 0 0 0-.231-.067c-.081 0-.162.023-.232.067l-.907.582a.43.43 0 0 1-.232.068c-.083 0-.163-.024-.231-.068l-.384-.189c-.063-.028-.13-.043-.199-.044a.49.49 0 0 0-.2.04.5.5 0 0 0-.167.117c-.047.05-.083.109-.106.174l-.292 1.339a.72.72 0 0 0 .292.766l.769.462 2.014 1.247.963.573a.73.73 0 0 0 .448.096c.156-.017.302-.083.418-.189l1.63-1.441a.75.75 0 0 1 .463-.092l.463.286c.19.097.384.097.463-.097l.861-.767a.43.43 0 0 1 .463-.097l1.25.577a.63.63 0 0 0 .299.022c.1-.017.194-.058.275-.119l.579-.767 4.324-5.542c.19-.291.093-.674-.292-.674l-.907-.203c-.194 0-.287-.286-.194-.462l1.537-1.819c.213-.194.116-.49-.074-.49zM38.808 44.325c-.097-.097-.19 0-.19.097l.463 1.242v.291l-.384 1.626c-.007.053-.001.106.016.156a.37.37 0 0 0 .082.135l1.153.859c.053.046.121.072.192.072s.139-.026.192-.072l1.25-1.053c.037-.037.083-.065.132-.081a.35.35 0 0 1 .155-.016l1.347-.189c.093 0 .093-.097 0-.194l-4.408-2.872zm-.384 4.12c-.016-.023-.038-.041-.063-.054s-.053-.02-.081-.02-.056.007-.081.02-.047.032-.063.054l-.963.462c-.012 0-.025.002-.036.007s-.022.012-.031.021-.015.02-.02.032-.006.024-.006.037l-2.116 5.172h.097l.463-.189v.092l-1.537 2.494c0 .097 0 .097.093.097l5.38-5.463c.097 0 .097-.097.097-.194l.097-1.436c0-.097 0-.189-.097-.189l-1.134-.942z" fill="#fff"/><path d="M32.998 88.582l-2.13-3.976 3.704-2.563.713.993-1.171.79c-.2.143-.409.275-.625.393a4 4 0 0 1-.611.282l3.982.961-.273 1.127-3.991-.965c.105.107.202.221.292.342s.171.24.255.374l.255.462.676 1.238-1.074.545z" fill="#ffcd1e"/><path d="M15.552 73.388c.634-.725 1.644-.799 2.546 0l1.852 1.621-3.704 4.216-1.472-1.325c-.963-.841-1.315-1.723-.639-2.498.146-.182.342-.318.564-.39s.461-.078.686-.016c-.166-.245-.241-.54-.21-.834s.164-.568.377-.773zm1.324 3.519l-.75-.651c-.463-.411-.861-.526-1.102-.249s-.074.642.403 1.053l.745.651.704-.804zm-.602-2.734c-.329.379-.153.84.366 1.293l.852.739.968-1.104-.852-.739c-.518-.453-1-.573-1.333-.189zm-9.065-4.637l2.556-1.94c1.176-.896 2.523-.877 3.389.254s.523 2.434-.653 3.325l-2.556 1.94-.644-.841 2.658-2.023a1.2 1.2 0 0 0 .363-.341c.096-.138.161-.294.192-.459s.027-.334-.011-.497a1.19 1.19 0 0 0-.213-.45 1.2 1.2 0 0 0-.855-.468c-.167-.014-.336.007-.494.063a1.2 1.2 0 0 0-.426.258l-2.662 2.018-.644-.84zm2.635-6.526l-4.963 2.61-.495-.924 4.972-2.623.486.938zm-4.153-7.144L6.7 55.52l1.083 3.127-5.31 1.847-.347-1.002 4.296-1.478-.732-2.148zM2.413 47.83c1.537-.212 2.921.67 3.176 2.512l.255 1.847-5.556.762-.25-1.847c-.259-1.894.843-3.066 2.375-3.274zm.144 1.048a1.66 1.66 0 0 0-1.155.625c-.14.177-.241.381-.299.599a1.65 1.65 0 0 0-.036.669l.13.97 3.445-.462-.134-.965a1.66 1.66 0 0 0-.214-.634 1.67 1.67 0 0 0-1.726-.802h-.009zM.811 34.027l1.051.208-.287 1.432 4.459.887-.208 1.039-4.459-.887-.287 1.427-1.046-.208.778-3.898zm3.065-8.493L9.052 27.7l-.412.979-2.097-.877L5.617 30l2.097.877-.412.974-5.176-2.166.412-.979 2.093.878.926-2.198-2.093-.877.412-.974zM7.7 21.096l.995.674 1.116-1.644.884.596-1.116 1.644.995.674 1.343-1.972.884.596-1.94 2.849-4.63-3.14 1.935-2.849.884.6-1.35 1.972zm11.191-5.88l-3.435-4.429 2.732-2.106.653.841-1.889 1.459.741.951 1.574-1.219.657.845-1.583 1.224 1.389 1.792-.838.642zm7.037-10.931l1.44 2.859c.662 1.316.398 2.632-.875 3.274s-2.495.065-3.157-1.256l-1.44-2.845.949-.462 1.5 2.974a1.2 1.2 0 0 0 .291.368 1.21 1.21 0 0 0 .876.284c.157-.012.311-.056.452-.127s.266-.17.369-.29a1.2 1.2 0 0 0 .284-.874 1.2 1.2 0 0 0-.128-.451l-1.5-2.979.94-.476zm7.968-2.614l.282 1.025-1.389.388 1.208 4.373-1.028.277-1.204-4.369-1.389.388-.287-1.03 3.806-1.053zm8.852-1.09l.231 3.191c.107 1.469-.648 2.582-2.069 2.683s-2.315-.891-2.431-2.365L38.248.905l1.06-.079.236 3.325a1.2 1.2 0 0 0 .362.916 1.19 1.19 0 0 0 .427.268c.16.058.33.082.5.07s.335-.06.485-.141a1.2 1.2 0 0 0 .611-1.284L41.688.655l1.06-.074zm6.889 6.083L48.632 4.65l-.634-.079-.236 1.847-1.056-.139.718-5.542 1.977.254c1.44.185 2.005 1.048 1.852 2.124a1.85 1.85 0 0 1-1.496 1.607l1.148 2.111-1.269-.171zm-1.5-3.15l1.056.134a.86.86 0 0 0 .654-.122c.095-.063.177-.144.24-.239a.87.87 0 0 0 .129-.313.82.82 0 0 0-.201-.646.84.84 0 0 0-.279-.205.82.82 0 0 0-.339-.072l-1.056-.134-.204 1.598zm8.505.143l-.375 1.141 1.889.623-.333 1.011-1.889-.623-.375 1.141 2.269.748-.319 1.011-3.273-1.081 1.755-5.316 3.278 1.076-.333 1.016-2.292-.748z" fill="#fff"/><path d="M71.536 8.987l.306 4.498-4.449.813-.241-1.205 1.389-.24.731-.102c.223-.018.448-.018.671 0l-3.241-2.512.713-.924 3.241 2.512a3 3 0 0 1-.125-.429 3.35 3.35 0 0 1-.074-.462c0-.152-.037-.328-.051-.513L70.3 9.038l1.236-.051z" fill="#ffcd1e"/><path d="M79.083 29.353l1.167-1.921-.269-.577-1.694.785-.463-.961 5.093-2.355.843 1.801c.611 1.312.18 2.249-.801 2.706-.357.172-.759.225-1.148.152s-.745-.269-1.014-.558l-1.176 2.097-.537-1.168zm1.852-2.947l.463.961a.86.86 0 0 0 .453.488.86.86 0 0 0 .332.075c.115.003.228-.018.335-.06a.82.82 0 0 0 .433-.514c.032-.111.039-.228.022-.342a.81.81 0 0 0-.121-.321l-.463-.961-1.454.674zm3.727 11.879a2.93 2.93 0 0 1-1.688-.132 2.92 2.92 0 0 1-1.331-1.043 2.91 2.91 0 0 1-.074-3.232 2.92 2.92 0 0 1 1.282-1.103c.527-.233 1.112-.306 1.68-.209a2.92 2.92 0 0 1 1.514.756 2.91 2.91 0 0 1 .839 1.467 2.92 2.92 0 0 1-.386 2.207c-.417.656-1.077 1.119-1.837 1.289zm-.236-1.034c.356-.085.678-.273.927-.54s.412-.602.471-.962.009-.729-.143-1.061a1.85 1.85 0 0 0-.708-.804c-.31-.192-.671-.289-1.036-.277s-.719.131-1.016.343a1.85 1.85 0 0 0-.656.847c-.13.341-.156.712-.074 1.068.053.239.154.465.296.665a1.85 1.85 0 0 0 .53.499 1.86 1.86 0 0 0 .682.257 1.84 1.84 0 0 0 .728-.026v-.009zm-.639 9.111l-.963.42a2.79 2.79 0 0 1-.704-1.792 2.93 2.93 0 0 1 .828-2.087 2.94 2.94 0 0 1 2.065-.892c.386-.006.77.064 1.129.206a2.94 2.94 0 0 1 .964.621c.277.268.499.588.652.941A2.95 2.95 0 0 1 88 44.898a2.77 2.77 0 0 1-.639 1.81l-.977-.388a1.95 1.95 0 0 0 .546-1.386 1.84 1.84 0 0 0-.265-.846 1.85 1.85 0 0 0-.63-.626 1.86 1.86 0 0 0-.85-.261 1.85 1.85 0 0 0-1.57.715c-.184.237-.307.516-.359.811s-.031.599.062.885.253.544.468.754v-.005zm-2.755 8.211l.264-1.316 2.815-1.584-2.407-.462.208-1.039 5.505 1.085-.208 1.039-2.278-.462 1.898 2.383-.264 1.312-2.167-2.854-3.366 1.898zm2.801 5.777l-1.116-.462-.755 1.847-.986-.402.75-1.847-1.111-.462-.926 2.203-.991-.402 1.301-3.187 5.199 2.115-1.306 3.187-.986-.402.926-2.189zm-4.102 9.828l-.88-.591.792-1.224-3.82-2.457.574-.887 3.82 2.457.796-1.224.898.577-2.181 3.348zm-8.584 3.879c-.727-.693-.773-1.796.25-2.859a3.06 3.06 0 0 1 1.021-.73c.387-.17.806-.258 1.229-.259l.306 1.03a2.45 2.45 0 0 0-.972.171 2.44 2.44 0 0 0-.825.54c-.509.531-.607 1.025-.324 1.298s.704.12 1.287-.328c1.273-.974 2.079-.951 2.69-.365s.745 1.755-.218 2.771a2.97 2.97 0 0 1-1.815.924l-.352-.956a2.34 2.34 0 0 0 1.389-.693c.394-.406.62-.873.296-1.187s-.602-.129-1.259.356c-.968.697-1.838 1.118-2.704.286zm-2.065 5.348l-.695-.979-1.625 1.145-.616-.868 1.625-1.145-.694-.979-1.954 1.385-.616-.873 2.82-1.986 3.241 4.567-2.82 1.99-.616-.873 1.949-1.385zm-10.394 1.852l2.153-.956-.056-1.141 1.093-.462.171 6.055-.88.388-4.385-4.189 1.088-.462.815.767zm.806.808l1.519 1.515-.111-2.138-1.407.624zm-7.468 5.893l-.25-1.039 1.421-.337-1.051-4.41 1.032-.245 1.051 4.41L55.651 86l.25 1.034-3.875.924z" fill="#fff"/></svg>