<?xml version="1.0" standalone="no"?>
<!DOCTYPE svg PUBLIC "-//W3C//DTD SVG 20010904//EN"
 "http://www.w3.org/TR/2001/REC-SVG-20010904/DTD/svg10.dtd">
<svg version="1.0" xmlns="http://www.w3.org/2000/svg"
 width="2016.000000pt" height="2016.000000pt" viewBox="0 0 2016.000000 2016.000000"
 preserveAspectRatio="xMidYMid meet">
<metadata>
Created by potrace 1.14, written by Peter Selinger 2001-2017
</metadata>
<g transform="translate(0.000000,2016.000000) scale(0.100000,-0.100000)"
fill="#000000" stroke="none">
<path d="M0 10102 l0 -3659 2003 2 c1101 1 2013 5 2027 8 14 4 54 9 90 12 36
3 80 7 98 10 51 7 106 15 127 19 11 2 40 7 65 11 25 4 54 9 65 12 30 6 57 12
83 18 12 3 30 7 40 9 9 2 37 9 62 16 25 7 54 14 65 17 24 5 35 8 55 15 30 11
165 52 170 53 5 0 50 17 95 35 11 4 47 18 80 31 33 13 71 29 85 36 14 7 33 13
43 13 9 0 17 5 17 10 0 6 4 10 9 10 21 0 277 129 379 192 58 35 266 171 272
177 16 18 90 71 99 71 6 0 11 4 11 8 0 4 24 26 52 47 29 22 69 54 88 72 175
157 184 165 295 286 94 101 114 123 160 182 22 27 45 55 50 62 66 77 222 311
307 462 59 103 189 376 204 426 2 6 19 53 39 105 35 93 102 311 111 360 3 14
10 43 16 65 5 22 11 47 13 55 1 8 6 35 11 60 9 50 11 59 13 63 2 2 4 17 15
106 3 24 8 60 11 80 3 20 7 56 10 80 3 24 8 48 11 52 3 5 0 9 -6 9 -6 0 -8 5
-4 12 4 6 9 32 11 57 6 101 2 516 -6 516 -1 0 -4 29 -6 65 -6 115 -42 320 -96
555 -6 28 -14 55 -18 60 -3 6 -7 19 -9 30 -4 28 -102 318 -112 330 -4 6 -15
34 -24 62 -10 29 -22 55 -27 58 -5 4 -9 14 -9 24 0 10 -7 24 -15 31 -8 7 -13
16 -10 20 2 4 -2 16 -10 26 -8 10 -15 27 -15 36 0 9 -3 18 -7 20 -5 2 -20 28
-36 58 -15 30 -41 80 -59 110 -17 30 -36 64 -42 75 -6 11 -21 34 -33 52 -13
17 -23 33 -23 36 0 8 -110 170 -131 193 -10 11 -19 25 -19 31 0 6 -3 13 -7 15
-5 2 -35 37 -68 78 -33 41 -67 83 -75 93 -41 50 -125 140 -216 231 -91 91
-126 123 -229 211 -59 51 -261 202 -335 249 -41 27 -91 60 -111 73 -19 12 -40
23 -47 23 -6 0 -15 6 -19 13 -4 6 -36 26 -70 42 -35 17 -63 33 -63 38 0 4 -4
7 -10 7 -5 0 -63 27 -130 59 -66 33 -123 60 -126 60 -2 0 -25 9 -50 21 -26 11
-51 20 -55 20 -5 0 -17 4 -27 9 -49 25 -152 62 -152 55 0 -4 -6 -2 -13 3 -12
10 -127 49 -164 56 -10 2 -25 7 -33 10 -8 4 -26 9 -40 11 -14 3 -54 13 -90 22
-36 9 -72 17 -80 18 -8 1 -26 5 -40 8 -86 21 -209 40 -340 53 -36 4 -76 9 -90
13 -14 3 -933 8 -2042 9 l-2018 4 0 -3659z"/>
<path d="M7721 13648 c22 -62 46 -129 53 -148 8 -19 28 -75 45 -125 17 -49 36
-98 41 -107 6 -10 10 -26 10 -36 0 -10 3 -22 7 -25 7 -7 42 -101 48 -129 2 -9
9 -26 15 -38 6 -12 13 -29 15 -38 2 -9 20 -60 40 -112 20 -52 38 -103 40 -112
2 -9 9 -27 16 -40 7 -13 12 -24 11 -25 -2 -3 7 -32 18 -58 8 -18 22 -60 26
-77 1 -5 3 -10 4 -13 1 -3 3 -8 5 -12 1 -5 9 -25 18 -45 10 -21 17 -41 17 -45
0 -4 14 -44 31 -87 17 -44 32 -87 34 -95 3 -14 46 -132 62 -171 3 -8 7 -17 8
-20 4 -19 29 -87 34 -95 3 -5 6 -14 7 -20 1 -5 23 -66 49 -135 25 -69 48 -132
50 -140 4 -12 36 -102 58 -160 12 -34 89 -247 99 -275 5 -16 14 -39 19 -50 4
-11 15 -40 23 -65 8 -25 27 -76 41 -115 15 -38 36 -97 47 -130 11 -33 25 -71
31 -85 6 -14 11 -29 13 -35 1 -5 19 -55 39 -110 21 -55 46 -125 56 -155 11
-30 23 -62 26 -70 3 -8 7 -18 8 -22 2 -5 4 -10 5 -13 1 -3 3 -8 5 -12 1 -5 4
-15 8 -23 7 -18 136 -379 142 -398 3 -7 5 -14 6 -17 0 -2 19 -51 40 -107 22
-57 42 -110 44 -118 3 -12 124 -352 142 -400 4 -8 7 -17 8 -20 1 -3 5 -12 8
-20 8 -18 88 -241 91 -255 2 -5 6 -17 9 -25 3 -8 22 -60 42 -115 20 -55 45
-122 55 -150 10 -27 30 -84 45 -125 15 -41 29 -82 32 -90 4 -8 7 -17 8 -20 1
-3 4 -12 8 -20 3 -8 24 -67 47 -130 22 -63 43 -122 47 -130 3 -8 7 -19 8 -25
2 -5 24 -68 50 -140 57 -161 57 -160 53 -161 -2 0 2 -7 8 -15 6 -8 17 -32 23
-54 7 -22 16 -49 21 -60 5 -11 27 -72 50 -135 22 -63 52 -143 65 -178 14 -34
25 -68 25 -75 0 -6 6 -24 14 -38 7 -14 17 -39 21 -55 4 -16 9 -33 11 -39 2 -5
19 -53 40 -105 20 -52 38 -103 40 -113 2 -11 8 -25 15 -33 6 -8 9 -14 6 -14
-5 0 6 -34 32 -95 5 -11 44 -119 87 -240 l79 -220 1237 -1 c681 0 1241 2 1246
5 4 3 16 35 27 71 10 36 21 70 25 75 4 6 19 51 35 100 15 50 44 137 63 194 19
57 35 109 37 115 1 6 5 18 8 26 14 35 149 447 153 469 3 13 12 37 20 52 8 16
12 29 9 29 -2 0 5 24 16 53 12 28 22 59 24 67 2 8 8 27 14 43 6 15 8 27 5 27
-4 0 -1 7 6 15 7 8 9 15 5 15 -4 0 -3 6 2 13 6 6 20 46 32 87 12 41 26 82 30
90 5 9 12 31 16 50 4 19 11 40 15 45 4 6 11 26 15 45 4 19 12 41 17 48 6 6 8
12 4 12 -4 0 0 14 9 30 9 17 13 30 9 30 -4 0 -2 6 4 13 6 6 10 15 10 20 1 7
48 157 59 187 8 20 9 21 18 55 4 17 12 36 18 43 5 6 7 12 4 12 -3 0 25 91 62
203 70 207 101 304 106 322 1 6 5 17 8 25 24 63 65 190 61 190 -2 0 2 13 11
30 8 16 14 32 13 34 -2 2 0 7 3 10 4 4 11 -6 16 -21 16 -42 35 -107 35 -118 0
-5 3 -14 8 -20 4 -5 15 -35 24 -65 10 -30 20 -62 23 -70 3 -8 7 -20 8 -25 2
-6 28 -87 59 -180 31 -92 56 -172 56 -176 0 -4 5 -20 12 -36 14 -34 13 -31 23
-68 4 -16 10 -34 14 -40 3 -5 6 -14 7 -20 3 -15 83 -263 105 -325 11 -30 22
-63 24 -73 2 -9 7 -22 10 -27 3 -5 8 -18 10 -29 4 -22 92 -296 105 -326 8 -20
104 -315 105 -325 1 -6 44 -139 52 -160 3 -8 7 -22 9 -30 2 -8 7 -23 13 -35 5
-11 22 -60 36 -110 15 -49 30 -94 33 -100 4 -5 7 -14 7 -20 1 -5 4 -17 8 -25
7 -17 68 -206 72 -224 1 -6 7 -22 12 -36 6 -14 9 -28 6 -32 -2 -5 1 -8 6 -8 6
0 10 -3 9 -7 -2 -5 13 -56 32 -114 l34 -106 1243 0 1243 1 7 20 c4 12 6 24 5
29 -1 4 2 7 8 7 6 0 9 3 8 8 -1 4 6 32 17 62 11 30 20 57 20 60 1 3 7 19 14
35 15 39 22 58 66 185 20 58 40 114 45 125 34 86 60 163 60 177 0 9 3 18 7 20
7 3 59 139 68 178 2 8 13 40 25 70 23 58 51 138 54 155 2 6 10 27 19 49 9 21
17 42 17 45 0 4 11 35 25 69 14 34 27 70 29 79 1 10 9 32 15 48 12 28 88 238
95 260 2 6 9 24 15 40 7 17 14 37 16 45 2 8 13 40 25 70 12 30 23 62 25 70 2
8 4 16 5 18 2 1 3 5 5 10 1 4 7 20 13 35 7 16 12 34 12 41 0 7 3 16 7 20 4 3
8 12 9 19 2 7 16 47 32 89 16 42 27 80 24 83 -3 3 -1 5 5 5 5 0 10 6 10 13 0
6 17 57 38 112 20 55 38 105 39 110 2 6 6 17 9 25 4 8 18 49 32 90 15 41 29
82 32 90 4 8 7 17 8 20 1 3 4 12 8 20 3 8 17 49 32 90 14 41 28 82 32 90 3 8
7 20 9 25 1 6 19 55 39 110 21 55 43 118 51 140 7 22 20 58 28 80 55 150 78
211 80 220 2 6 6 17 9 25 4 8 23 62 42 120 20 58 40 114 45 125 4 11 13 34 19
50 6 17 16 44 22 60 7 17 14 36 16 43 1 6 5 18 6 25 2 6 9 25 15 40 7 16 12
30 12 32 0 2 5 16 11 32 12 29 70 189 119 328 16 44 47 132 70 195 23 63 43
122 45 131 2 9 8 25 14 35 5 11 35 91 66 179 31 88 75 210 96 270 22 61 42
116 44 123 2 7 5 14 5 17 0 3 7 22 16 43 8 20 25 64 36 97 12 33 25 71 31 85
12 29 18 50 19 68 1 6 5 12 10 12 4 0 8 6 8 13 0 8 25 83 56 168 31 84 57 158
58 164 1 5 4 15 7 20 5 8 30 76 34 95 1 3 5 12 8 20 4 8 25 67 48 130 22 63
58 162 79 220 21 58 57 159 80 225 43 125 50 143 68 185 11 27 72 199 76 215
2 6 6 17 9 25 4 8 18 49 32 90 14 41 30 84 35 95 4 11 11 28 14 38 5 16 -71
17 -1501 17 -828 0 -1504 -3 -1500 -6 3 -3 2 -18 -3 -32 -21 -66 -50 -169 -54
-192 -2 -14 -13 -53 -24 -87 -11 -35 -18 -63 -16 -63 2 0 -1 -12 -7 -27 -6
-16 -12 -35 -14 -43 -2 -8 -18 -64 -35 -123 -16 -60 -32 -116 -34 -125 -1 -9
-6 -24 -9 -32 -3 -8 -9 -28 -13 -45 -9 -39 -3 -17 -74 -270 -34 -121 -70 -251
-80 -290 -10 -38 -37 -135 -60 -215 -22 -80 -42 -153 -45 -162 -2 -9 -14 -52
-26 -95 -12 -43 -23 -85 -24 -93 -1 -8 -5 -22 -8 -30 -6 -14 -55 -187 -62
-220 -2 -8 -9 -31 -15 -50 -6 -19 -14 -48 -17 -65 -3 -16 -9 -38 -14 -47 -5
-10 -7 -18 -3 -18 3 0 1 -6 -5 -14 -6 -8 -11 -18 -10 -22 2 -8 -6 -48 -17 -82
-2 -7 -4 -14 -4 -17 0 -3 -7 -23 -15 -46 -9 -23 -17 -51 -20 -63 -2 -12 -14
-57 -26 -101 -11 -44 -22 -84 -24 -90 -1 -5 -5 -17 -8 -25 -4 -8 -8 -26 -11
-40 -2 -14 -9 -38 -14 -55 -6 -16 -27 -91 -47 -165 -20 -74 -52 -190 -72 -258
-19 -68 -36 -131 -38 -140 -2 -9 -18 -66 -35 -127 -17 -60 -33 -119 -36 -130
-3 -11 -7 -24 -8 -30 -2 -5 -7 -25 -11 -42 -7 -32 -24 -45 -26 -20 -1 16 -4
31 -23 97 -9 30 -19 66 -21 80 -3 14 -14 52 -24 85 -10 33 -33 114 -51 180
-18 66 -39 143 -46 170 -8 28 -15 55 -15 60 -1 6 -6 21 -11 35 -5 14 -11 33
-13 42 -6 27 -46 171 -52 188 -3 8 -8 24 -10 35 -2 11 -9 38 -15 60 -6 22 -12
42 -13 45 -1 3 -6 23 -13 45 -6 22 -13 51 -16 65 -3 14 -12 48 -21 75 -9 28
-18 57 -20 65 -3 14 -19 73 -50 188 -8 28 -21 76 -29 105 -8 28 -19 67 -25 85
-5 17 -8 32 -6 32 2 0 -5 23 -16 51 -10 29 -16 55 -14 60 3 4 1 10 -4 13 -5 4
-13 25 -17 49 -9 47 -8 46 -16 67 -6 15 -11 33 -48 170 -11 41 -25 91 -31 110
-6 19 -12 42 -13 50 -2 8 -5 22 -9 30 -3 8 -10 38 -17 65 -7 28 -15 57 -18 65
-3 8 -7 22 -8 30 -2 8 -10 40 -19 70 -17 58 -44 155 -50 180 -2 8 -11 40 -20
70 -9 30 -18 62 -20 70 -20 76 -47 175 -60 220 -8 30 -20 71 -25 90 -5 19 -21
76 -35 126 -14 50 -27 100 -30 110 -11 49 -95 346 -100 354 -4 6 -354 10 -975
10 l-968 0 -11 -32 c-8 -29 -28 -102 -36 -133 -1 -5 -5 -17 -8 -25 -8 -19 -37
-129 -42 -155 -2 -11 -8 -33 -14 -48 -6 -16 -9 -33 -5 -38 3 -5 0 -9 -5 -9 -6
0 -11 -7 -11 -16 0 -9 -10 -49 -21 -88 -12 -39 -22 -75 -24 -81 -4 -22 -17
-71 -21 -83 -2 -7 -4 -14 -4 -17 -1 -3 -6 -19 -11 -37 -6 -18 -12 -40 -14 -48
-2 -8 -11 -40 -20 -70 -9 -30 -27 -95 -41 -145 -24 -87 -42 -149 -48 -170 -12
-43 -29 -103 -32 -117 -5 -25 -10 -40 -38 -138 -13 -47 -45 -161 -71 -255 -25
-93 -49 -177 -52 -185 -3 -8 -7 -21 -9 -28 -1 -8 -19 -73 -39 -145 -21 -73
-57 -204 -82 -292 -24 -88 -51 -185 -60 -215 -9 -30 -17 -60 -19 -66 -1 -6
-10 -38 -19 -70 -10 -33 -18 -63 -19 -69 -2 -5 -8 -30 -15 -55 -8 -25 -15 -52
-16 -60 -2 -8 -4 -16 -5 -17 -2 -2 -3 -6 -4 -10 -2 -5 -8 -28 -15 -53 -7 -25
-15 -52 -17 -60 -2 -8 -10 -40 -19 -70 -9 -30 -18 -62 -20 -70 -2 -8 -20 -73
-40 -145 -20 -71 -37 -136 -38 -142 0 -7 -4 -13 -8 -13 -4 0 -6 -6 -5 -12 2
-21 -88 -338 -96 -338 -5 0 -8 8 -8 18 0 10 -5 23 -12 30 -7 7 -9 12 -6 12 4
0 2 15 -4 33 -5 17 -14 48 -18 67 -7 31 -56 210 -64 235 -2 6 -4 13 -5 17 -1
4 -11 38 -22 75 -11 38 -22 79 -25 93 -8 38 -12 55 -14 55 -1 0 -3 7 -5 15 -2
8 -16 58 -31 110 -14 52 -27 100 -29 105 -1 6 -5 17 -8 25 -3 8 -8 29 -11 45
-7 31 -9 39 -19 65 -3 8 -8 26 -10 40 -6 28 -35 137 -43 160 -3 8 -5 16 -5 17
0 2 -9 33 -20 70 -11 38 -29 102 -40 143 -11 41 -27 100 -35 130 -9 30 -17 62
-19 70 -3 8 -14 49 -26 90 -23 83 -49 177 -55 200 -12 49 -65 240 -109 395
-48 170 -145 527 -148 542 -1 10 -6 23 -9 29 -4 6 -9 21 -12 35 -3 13 -10 42
-16 64 -6 22 -12 47 -15 55 -2 8 -15 58 -30 110 -14 52 -32 118 -40 145 -7 28
-23 84 -35 125 -12 41 -23 86 -26 99 -3 14 -7 28 -10 33 -3 4 -7 17 -9 28 -3
17 -47 181 -61 228 -3 9 -312 12 -1503 12 l-1500 0 40 -112z"/>
</g>
</svg>
